<svg width="73" height="42" viewBox="0 0 73 42" fill="none" xmlns="http://www.w3.org/2000/svg">
<g clip-path="url(#clip0_628_2911)">
<path d="M66.4442 25.1114C65.9371 25.1114 65.525 24.6954 65.525 24.1819V15.8241L32.8099 15.8189C32.3021 15.8189 31.8906 15.4029 31.8906 14.8894C31.8906 14.3766 32.3021 13.96 32.8099 13.96L66.4441 13.9658C66.9513 13.9658 67.3633 14.3818 67.3633 14.8953V24.1819C67.3633 24.6954 66.9519 25.1114 66.4447 25.1114L66.4442 25.1114Z" fill="#D92635" stroke="#D92635" stroke-width="0.5"/>
<path d="M32.7444 37.5022C27.3306 37.5022 22.8625 36.3713 20.6818 35.6977C19.1512 35.2248 17.8218 34.6982 16.8366 34.1737C15.5325 33.4804 14.9762 32.8819 14.9762 32.1742L14.9756 19.5394C14.9756 19.2496 15.1088 18.9769 15.3366 18.8009C15.5643 18.625 15.8599 18.5668 16.1361 18.6426L32.7446 23.2199L49.3712 18.6406C49.6475 18.5647 49.9431 18.623 50.1708 18.7989C50.3985 18.9748 50.5318 19.2476 50.5318 19.5374V32.1749C50.5318 32.8826 49.9754 33.4811 48.6714 34.1743C47.6855 34.6989 46.3549 35.2254 44.8244 35.6983C42.6417 36.372 38.1704 37.5022 32.7444 37.5022H32.7444ZM16.8134 31.9694C17.8051 32.9551 24.5755 35.6439 32.7444 35.6439C40.9249 35.6439 47.7025 32.9549 48.6941 31.9694V20.7533L32.9857 25.0794C32.8279 25.1232 32.661 25.1232 32.5025 25.0794L16.8134 20.756V31.9694Z" fill="#D92635" stroke="#D92635" stroke-width="0.5"/>
<path d="M32.744 25.1113C32.6625 25.1113 32.5816 25.1002 32.5021 25.0786L-1.19674 15.792C-1.59652 15.6815 -1.87402 15.3145 -1.87402 14.8953C-1.87402 14.476 -1.5965 14.1091 -1.19674 13.9985L32.5021 4.69949C32.6606 4.65567 32.8275 4.65567 32.986 4.69949L66.7063 13.9985C67.1061 14.1091 67.3836 14.476 67.3836 14.8953C67.3836 15.3145 67.1061 15.6815 66.7063 15.792L32.986 25.0786C32.9064 25.1009 32.8249 25.1113 32.744 25.1113H32.744ZM2.53779 14.8946L32.744 23.2191L62.9701 14.8946L32.744 6.55969L2.53779 14.8946Z" fill="#D92635" stroke="#D92635" stroke-width="0.5"/>
<path d="M67.2341 37.5022H65.6511C63.8916 37.5022 62.46 36.0547 62.46 34.2755C62.46 34.235 62.4625 34.1951 62.4677 34.1552L63.5804 25.552C63.5862 25.5069 63.5953 25.4624 63.6075 25.4186C63.9666 24.1438 65.1323 23.2535 66.4429 23.2535C67.7535 23.2535 68.9191 24.1437 69.2775 25.4186C69.2898 25.4624 69.2989 25.5069 69.3047 25.552L70.4173 34.1552C70.4225 34.1951 70.4251 34.2356 70.4251 34.2755C70.4251 36.0546 68.9935 37.5022 67.2339 37.5022H67.2341ZM64.2991 34.3286C64.3269 35.0585 64.9227 35.6439 65.6511 35.6439H67.2341C67.9624 35.6439 68.5582 35.0585 68.5861 34.3286L67.4922 25.8713C67.3401 25.4213 66.9164 25.1119 66.4429 25.1119C65.9687 25.1119 65.5457 25.4213 65.3937 25.8713L64.2991 34.3286Z" fill="#D92635" stroke="#D92635" stroke-width="0.5"/>
</g>
<defs>
<clipPath id="clip0_628_2911">
<rect width="72" height="42" fill="white" transform="translate(0.5)"/>
</clipPath>
</defs>
</svg>
