<svg width="62" height="62" viewBox="0 0 62 62" fill="none" xmlns="http://www.w3.org/2000/svg">
<rect x="0.5" y="0.5" width="61" height="61" rx="30.5" fill="white"/>
<rect x="0.5" y="0.5" width="61" height="61" rx="30.5" stroke="#D92635" stroke-dasharray="5 5"/>
<path d="M32.2673 23.2089C31.9674 22.9232 31.4926 22.9348 31.2069 23.2347C30.9212 23.5346 30.9328 24.0093 31.2327 24.295L37.4841 30.2496H22.75C22.3358 30.2496 22 30.5854 22 30.9996C22 31.4138 22.3358 31.7496 22.75 31.7496H37.4842L31.2327 37.7043C30.9328 37.99 30.9212 38.4648 31.2069 38.7647C31.4926 39.0646 31.9674 39.0762 32.2673 38.7905L39.6862 31.7238C39.8551 31.5629 39.9551 31.3576 39.9861 31.1443C39.9952 31.0975 40 31.0491 40 30.9996C40 30.9501 39.9952 30.9016 39.986 30.8547C39.955 30.6415 39.855 30.4364 39.6862 30.2756L32.2673 23.2089Z" fill="#212121"/>
</svg>
