<svg width="62" height="62" viewBox="0 0 62 62" fill="none" xmlns="http://www.w3.org/2000/svg">
<g opacity="0.75">
<rect x="0.5" y="-0.5" width="61" height="61" rx="30.5" transform="matrix(-1 0 0 1 62 1)" fill="white"/>
<rect x="0.5" y="-0.5" width="61" height="61" rx="30.5" transform="matrix(-1 0 0 1 62 1)" stroke="#D92635" stroke-dasharray="5 5"/>
<path d="M29.7327 23.2089C30.0326 22.9232 30.5074 22.9348 30.7931 23.2347C31.0788 23.5346 31.0672 24.0093 30.7673 24.295L24.5159 30.2496H39.25C39.6642 30.2496 40 30.5854 40 30.9996C40 31.4138 39.6642 31.7496 39.25 31.7496H24.5158L30.7673 37.7043C31.0672 37.99 31.0788 38.4648 30.7931 38.7647C30.5074 39.0646 30.0326 39.0762 29.7327 38.7905L22.3138 31.7238C22.1449 31.5629 22.0449 31.3576 22.0139 31.1443C22.0048 31.0975 22 31.0491 22 30.9996C22 30.9501 22.0048 30.9016 22.014 30.8547C22.045 30.6415 22.145 30.4364 22.3138 30.2756L29.7327 23.2089Z" fill="#212121"/>
</g>
</svg>
