<svg width="17" height="16" viewBox="0 0 17 16" fill="none" xmlns="http://www.w3.org/2000/svg">
<path d="M4.34913 7.9998L2.08627 2.181C1.92879 1.77602 2.32368 1.38873 2.71432 1.52639L2.77589 1.55257L14.7759 7.55253C15.1214 7.72533 15.143 8.19833 14.8407 8.4086L14.7759 8.447L2.77589 14.447C2.38723 14.6413 1.96503 14.284 2.06592 13.8823L2.08627 13.8185L4.34913 7.9998ZM3.48812 3.02671L5.22745 7.4994L9.64585 7.4998C9.89899 7.4998 10.1082 7.68786 10.1413 7.93193L10.1459 7.9998C10.1459 8.25293 9.95772 8.46213 9.71365 8.4952L9.64585 8.4998L5.22745 8.4994L3.48812 12.9729L13.4343 7.9998L3.48812 3.02671Z" fill="black"/>
</svg>
