<svg width="512" height="198" viewBox="0 0 512 198" fill="none" xmlns="http://www.w3.org/2000/svg">
<mask id="path-1-inside-1_2003_1186" fill="white">
<path d="M186 93C186 105.213 183.594 117.306 178.921 128.59C174.247 139.873 167.397 150.125 158.761 158.761C150.125 167.397 139.873 174.247 128.59 178.921C117.306 183.594 105.213 186 93 186C80.7871 186 68.6937 183.594 57.4104 178.921C46.1272 174.247 35.8749 167.397 27.2391 158.761C18.6032 150.125 11.7529 139.873 7.0792 128.59C2.40551 117.306 -1.06769e-06 105.213 0 93H1.15654C1.15654 105.061 3.53214 117.004 8.1477 128.147C12.7633 139.29 19.5284 149.415 28.0569 157.943C36.5853 166.472 46.7101 173.237 57.853 177.852C68.996 182.468 80.9389 184.843 93 184.843C105.061 184.843 117.004 182.468 128.147 177.852C139.29 173.237 149.415 166.472 157.943 157.943C166.472 149.415 173.237 139.29 177.852 128.147C182.468 117.004 184.843 105.061 184.843 93H186Z"/>
</mask>
<path d="M186 93C186 105.213 183.594 117.306 178.921 128.59C174.247 139.873 167.397 150.125 158.761 158.761C150.125 167.397 139.873 174.247 128.59 178.921C117.306 183.594 105.213 186 93 186C80.7871 186 68.6937 183.594 57.4104 178.921C46.1272 174.247 35.8749 167.397 27.2391 158.761C18.6032 150.125 11.7529 139.873 7.0792 128.59C2.40551 117.306 -1.06769e-06 105.213 0 93H1.15654C1.15654 105.061 3.53214 117.004 8.1477 128.147C12.7633 139.29 19.5284 149.415 28.0569 157.943C36.5853 166.472 46.7101 173.237 57.853 177.852C68.996 182.468 80.9389 184.843 93 184.843C105.061 184.843 117.004 182.468 128.147 177.852C139.29 173.237 149.415 166.472 157.943 157.943C166.472 149.415 173.237 139.29 177.852 128.147C182.468 117.004 184.843 105.061 184.843 93H186Z" fill="white" stroke="#D92635" stroke-width="2" stroke-dasharray="6 6" mask="url(#path-1-inside-1_2003_1186)"/>
<path d="M191 93L493 93" stroke="#DD2937" stroke-linecap="round" stroke-dasharray="8 8"/>
<circle cx="93" cy="186" r="12" fill="#D92635"/>
<path d="M488.705 82.3295C488.265 82.7688 488.265 83.4812 488.705 83.9205L498.784 94L488.705 104.08C488.265 104.519 488.265 105.231 488.705 105.67C489.144 106.11 489.856 106.11 490.295 105.67L501.17 94.7954C501.61 94.3561 501.61 93.6439 501.17 93.2045L490.295 82.3295C489.856 81.8902 489.144 81.8902 488.705 82.3295Z" fill="#D92635"/>
</svg>
