<svg width="20" height="23" viewBox="0 0 20 23" fill="none" xmlns="http://www.w3.org/2000/svg">
<path d="M14.9943 10.4552C17.7661 11.6218 19.1298 14.4142 18.2254 17.3041C17.6091 19.2765 15.8533 20.8699 13.9718 21.5902C11.5997 22.5011 8.41405 22.4426 6.07441 21.4721C1.32906 19.5062 0.222067 14.047 0.693245 9.50529C1.02144 6.3262 2.34507 3.22727 5.26746 1.63393C7.46954 0.428365 10.2879 0.25722 12.6991 0.761975C15.2023 1.28623 17.2343 2.76691 18.4659 5.00907C18.846 5.69688 19.1537 6.45725 19.3833 7.30321C19.3898 7.3357 19.3768 7.3693 19.3443 7.3758L17.6015 7.83506C17.569 7.84156 17.5354 7.82205 17.5289 7.79605C17.2668 6.79954 16.8541 5.91459 16.2833 5.14229C14.5004 2.71708 11.2303 2.06827 8.41189 2.57303C5.08874 3.16985 3.25384 5.503 2.71659 8.70701C2.27791 11.3088 2.41548 14.3232 3.61454 16.7224C4.62405 18.7415 6.45244 19.8744 8.65452 20.1896C9.84059 20.3532 11.0007 20.3337 12.1348 20.1236C13.7606 19.8225 15.5034 18.7469 16.2107 17.2066C16.67 16.2101 16.7155 14.946 16.2107 13.956C15.9226 13.3928 15.4893 12.94 14.9196 12.5999C14.8936 12.5804 14.8535 12.5934 14.8405 12.6194C14.834 12.6259 14.834 12.6324 14.834 12.6389C14.7679 13.1241 14.6574 13.6018 14.4928 14.0676C14.2567 14.7294 13.9166 15.3002 13.4638 15.7649C11.943 17.3312 9.29577 17.4687 7.50638 16.3412C6.07768 15.4367 5.54042 13.5888 6.22173 12.0681C6.92904 10.4953 8.65994 9.814 10.3042 9.73493C11.2346 9.68944 12.0936 9.72843 12.8865 9.84C12.919 9.8465 12.9449 9.8205 12.9525 9.78801V9.76849C12.8799 9.4078 12.7955 9.11318 12.6904 8.88355C12.1402 7.67149 10.901 7.34979 9.66296 7.50685C8.87008 7.60542 8.24725 7.97912 7.78148 8.62144C7.76199 8.64743 7.72949 8.65392 7.70241 8.63442L6.22173 7.6249C6.19574 7.6054 6.18925 7.57293 6.20875 7.53935C7.00163 6.42478 8.07611 5.77594 9.43982 5.59939C10.5674 5.44883 11.8315 5.62538 12.815 6.22221C14.2892 7.12665 14.8134 8.75249 14.9445 10.3967C14.9575 10.4292 14.9705 10.4487 14.99 10.4552H14.9943ZM7.9223 13.0245C7.62768 14.0145 8.309 14.7944 9.23294 15.0294C10.5306 15.3576 11.9723 15.0684 12.5886 13.7383C12.8312 13.2141 12.9753 12.5977 13.0208 11.8969C13.0208 11.8644 13.0013 11.8384 12.9753 11.8384C12.0124 11.6489 11.0223 11.6088 10.0128 11.7074C9.19394 11.7929 8.17793 12.1666 7.9223 13.0245Z" fill="white"/>
</svg>
