<svg width="362" height="362" viewBox="0 0 362 362" fill="none" xmlns="http://www.w3.org/2000/svg">
<path d="M90.5256 215.719C92.1097 215.936 93.6955 216.14 95.2813 216.344C95.6062 216.387 95.9312 216.429 96.2661 216.472C99.6175 216.902 102.976 217.25 106.338 217.585C107.519 217.703 108.699 217.821 109.88 217.94C110.313 217.983 110.313 217.983 110.755 218.027C113.681 218.321 116.605 218.639 119.528 218.965C119.787 218.993 120.045 219.022 120.311 219.052C123.811 219.442 127.308 219.846 130.805 220.257C132.408 220.445 134.011 220.633 135.615 220.82C136.012 220.866 136.41 220.913 136.82 220.961C144.658 221.873 152.507 222.649 160.366 223.354C160.528 223.015 160.528 223.015 160.692 222.67C162.031 220.102 165.035 218.62 167.606 217.562C168.724 217.226 169.74 217.149 170.905 217.136C171.274 217.131 171.643 217.127 172.023 217.122C172.42 217.119 172.818 217.116 173.227 217.114C173.64 217.111 174.052 217.108 174.478 217.105C175.352 217.1 176.227 217.096 177.102 217.093C177.991 217.089 178.879 217.082 179.768 217.071C191.733 216.926 191.733 216.926 196.204 220.82C196.568 221.281 196.923 221.748 197.268 222.223C197.847 222.932 198.157 223.311 199.069 223.488C201.764 223.418 204.424 223.112 207.096 222.776C208.463 222.605 209.831 222.441 211.199 222.276C211.468 222.244 211.737 222.212 212.014 222.178C214.23 221.911 216.449 221.668 218.671 221.453C219.102 221.41 219.102 221.41 219.542 221.366C220.071 221.316 220.601 221.273 221.132 221.238C221.674 221.199 222.214 221.137 222.752 221.059C223.64 220.972 224.3 220.953 225.164 221.182C226.136 222.056 226.724 223.081 227.359 224.214C227.534 224.501 227.709 224.789 227.89 225.085C229.146 227.182 229.146 227.182 229.146 228.06C228.78 228.096 228.413 228.133 228.035 228.17C218.99 229.066 209.949 229.997 200.91 230.956C200.91 238.84 200.91 246.725 200.91 254.848C205.748 255.206 205.748 255.206 210.684 255.572C212.586 255.755 214.481 255.945 216.379 256.159C216.865 256.212 217.35 256.265 217.836 256.318C219.087 256.455 220.337 256.594 221.588 256.733C223.818 256.981 226.049 257.227 228.279 257.471C228.523 257.498 228.767 257.525 229.019 257.552C233.037 257.992 237.058 258.383 241.084 258.753C244.587 259.075 248.085 259.424 251.58 259.831C256.318 260.381 261.058 260.863 265.808 261.295C269.285 261.611 272.748 261.967 276.206 262.45C276.036 262.074 275.866 261.698 275.69 261.31C273.975 257.488 272.698 253.893 271.975 249.757C271.904 249.353 271.904 249.353 271.831 248.941C271.518 247.028 271.46 245.202 271.5 243.264C271.722 243.193 271.944 243.123 272.173 243.05C280.568 240.343 288.46 236.641 294.057 229.531C294.259 229.284 294.461 229.038 294.668 228.784C294.907 228.784 295.146 228.784 295.392 228.784C296.691 232.865 296.971 236.917 296.953 241.183C296.953 241.429 296.953 241.675 296.953 241.929C296.942 245.63 296.703 249.091 295.754 252.676C295.67 253.082 295.67 253.082 295.585 253.496C294.468 258.78 291.999 265.119 287.428 268.242C282.847 271.046 277.261 270.133 272.148 269.602C271.446 269.533 271.446 269.533 270.73 269.461C269.5 269.339 268.271 269.214 267.042 269.087C266.052 268.986 265.061 268.888 264.071 268.789C259.473 268.331 254.878 267.871 250.296 267.275C248.904 267.141 247.557 267.136 246.16 267.156C246.361 267.501 246.562 267.846 246.768 268.201C247.033 268.66 247.298 269.118 247.563 269.577C247.695 269.803 247.827 270.03 247.963 270.263C249.47 272.881 250.145 274.952 249.78 278.016C248.956 279.694 247.739 281.195 245.924 281.853C244.672 282.067 243.427 282.042 242.161 282.033C241.882 282.033 241.603 282.032 241.315 282.032C240.426 282.03 239.538 282.025 238.649 282.021C238.045 282.019 237.441 282.017 236.837 282.016C235.36 282.012 233.882 282.005 232.404 281.998C232.261 282.445 232.118 282.892 231.97 283.353C231.258 285.486 230.428 287.565 229.576 289.645C229.427 290.024 229.277 290.402 229.123 290.792C228.239 292.948 227.333 294.94 225.526 296.478C224.158 296.934 222.96 297.101 221.544 296.84C218.053 295.041 215.783 291.41 213.784 288.175C213.339 287.465 212.893 286.755 212.448 286.045C212.218 285.678 211.988 285.31 211.752 284.932C210.579 283.063 209.387 281.208 208.196 279.351C207.712 278.596 207.228 277.841 206.745 277.086C206.502 276.707 206.259 276.327 206.009 275.937C205.222 274.708 204.436 273.479 203.651 272.249C203.386 271.836 203.122 271.422 202.857 271.008C202.356 270.225 201.855 269.441 201.355 268.657C201.128 268.302 200.901 267.947 200.667 267.582C200.457 267.253 200.248 266.925 200.031 266.587C199.556 265.853 199.07 265.131 198.574 264.411C198.014 263.536 198.014 263.536 198.014 262.812C197.787 263.004 197.559 263.197 197.324 263.395C192.984 266.977 189.451 267.99 183.852 268.002C183.44 268.004 183.027 268.006 182.602 268.009C181.733 268.013 180.865 268.014 179.996 268.014C178.675 268.016 177.354 268.029 176.033 268.043C175.186 268.045 174.338 268.046 173.49 268.047C173.099 268.052 172.709 268.057 172.306 268.063C169.287 268.045 166.94 267.361 164.371 265.776C164.125 265.634 163.878 265.492 163.624 265.346C162.339 265.774 162.221 266.048 161.527 267.167C161.332 267.479 161.137 267.79 160.936 268.111C160.725 268.453 160.515 268.795 160.298 269.147C159.84 269.88 159.381 270.613 158.923 271.346C158.684 271.729 158.445 272.112 158.199 272.507C156.783 274.77 155.336 277.013 153.894 279.259C152.763 281.022 151.635 282.787 150.524 284.563C150.141 285.176 149.755 285.789 149.37 286.401C148.889 287.164 148.412 287.929 147.938 288.696C146.071 291.653 143.729 295.34 140.456 296.84C139.071 297.126 137.818 297.178 136.549 296.486C134.551 294.858 133.729 292.953 132.786 290.596C132.637 290.239 132.488 289.882 132.335 289.514C131.896 288.46 131.469 287.402 131.044 286.342C130.902 285.988 130.76 285.634 130.614 285.269C130.273 284.421 129.934 283.572 129.596 282.722C129.213 282.706 128.83 282.69 128.434 282.673C127.005 282.611 125.577 282.543 124.148 282.472C123.531 282.443 122.913 282.415 122.296 282.389C121.406 282.352 120.517 282.308 119.627 282.262C119.353 282.252 119.079 282.242 118.797 282.231C116.854 282.124 115.269 281.731 113.797 280.356C112.419 278.554 112.015 277.534 112.018 275.276C112.491 272.369 114.226 269.578 115.84 267.156C113.393 267.116 111.015 267.266 108.582 267.514C108.204 267.551 107.826 267.588 107.436 267.627C106.218 267.747 104.999 267.87 103.781 267.993C102.943 268.076 102.104 268.159 101.266 268.242C97.785 268.588 94.3047 268.938 90.8284 269.328C90.1468 269.404 90.1468 269.404 89.4515 269.482C88.6663 269.571 87.8814 269.663 87.0969 269.758C81.7351 270.373 76.9848 270.529 72.5163 267.181C69.8672 264.818 68.5421 261.739 67.3323 258.468C67.2287 258.209 67.1251 257.951 67.0184 257.685C63.946 249.481 64.1287 238.573 66.6083 230.232C66.684 229.975 66.7596 229.718 66.8376 229.453C68.3923 224.392 71.001 219.13 75.7205 216.38C80.2874 214.013 85.6073 215.042 90.5256 215.719Z" fill="#2F4557"/>
<path d="M142.628 150.23C143.327 150.803 143.327 150.803 144.031 151.61C151.53 159.52 162.463 164 173.036 165.796C173.405 165.864 173.773 165.931 174.153 166.001C189.305 167.68 203.957 163.075 215.823 153.689C216.753 152.887 217.585 152.001 218.411 151.094C219.293 150.355 220.147 150.342 221.263 150.435C223.545 150.791 225.801 151.194 228.06 151.678C228.391 151.748 228.723 151.818 229.064 151.89C235.638 153.487 241.679 156.648 247.201 160.479C247.423 160.631 247.645 160.784 247.874 160.941C248.488 161.38 248.488 161.38 249.418 162.176C249.418 162.534 249.418 162.893 249.418 163.262C249.159 163.363 248.9 163.465 248.633 163.569C237.541 168.031 229.093 175.622 224.215 186.628C222.12 191.876 221.042 197.01 221.069 202.675C221.069 203.086 221.07 203.496 221.07 203.919C221.101 206.572 221.321 208.976 222.031 211.54C222.271 212.504 222.285 213.316 222.268 214.304C219.918 214.565 217.568 214.822 215.218 215.077C214.42 215.164 213.622 215.252 212.824 215.341C211.671 215.469 210.518 215.594 209.365 215.718C209.013 215.758 208.662 215.797 208.299 215.838C201.993 216.51 201.993 216.51 200.257 215.557C200.009 215.308 199.762 215.059 199.507 214.802C195.246 210.981 190.376 210.211 184.863 210.2C184.405 210.198 183.947 210.196 183.475 210.193C182.508 210.189 181.542 210.187 180.576 210.188C179.351 210.188 178.127 210.178 176.902 210.166C175.717 210.156 174.532 210.156 173.347 210.155C172.915 210.15 172.482 210.145 172.036 210.139C167.493 210.164 163.448 211.45 159.642 213.942C159.314 214.285 158.985 214.629 158.647 214.983C155.305 217.168 148.821 215.465 145.012 215.011C144.338 214.933 143.663 214.855 142.989 214.778C141.219 214.574 139.45 214.367 137.681 214.158C135.927 213.952 134.174 213.749 132.42 213.546C132.076 213.506 131.733 213.466 131.379 213.425C130.687 213.345 129.995 213.265 129.304 213.185C128.271 213.065 127.239 212.945 126.206 212.825C121.754 212.309 117.3 211.808 112.844 211.326C112.577 211.297 112.311 211.268 112.036 211.238C107.377 210.734 102.714 210.285 98.0469 209.855C95.5183 209.609 93.0118 209.255 90.5001 208.874C90.2668 199.716 92.3511 191.064 96.2921 182.81C96.4642 182.449 96.4642 182.449 96.6398 182.081C99.3019 176.609 102.746 171.741 107.006 167.403C107.475 166.922 107.933 166.431 108.389 165.939C115.918 158.007 131.158 148.733 142.628 150.23Z" fill="#FE4D5C"/>
<path d="M211.144 75.8304C215.247 79.4491 218.706 83.2836 221.544 87.966C221.678 88.1836 221.812 88.4012 221.95 88.6253C228.069 98.7111 229.765 111.608 227.114 123.046C224.003 135.053 216.645 145.831 205.978 152.339C203.865 153.579 201.701 154.668 199.462 155.66C199.234 155.762 199.007 155.864 198.773 155.97C187.497 160.924 174.428 160.382 163.077 156.026C151.475 151.31 142.589 142.032 137.56 130.682C137.458 130.455 137.356 130.227 137.25 129.993C132.261 118.639 132.872 105.741 137.187 94.3169C139.45 88.727 142.843 84.005 146.972 79.64C147.265 79.3195 147.558 78.9989 147.86 78.6686C164.184 61.4402 193.248 60.5545 211.144 75.8304Z" fill="#E0EAF3"/>
<path d="M261.59 168.217C261.935 168.218 262.281 168.219 262.636 168.221C265.694 168.267 268.533 168.67 271.5 169.416C271.789 169.486 272.078 169.556 272.375 169.628C280.717 172.038 288.394 178.112 292.589 185.692C297.189 194.406 298.325 204.084 295.392 213.58C294.706 215.477 293.824 217.242 292.858 219.01C292.683 219.339 292.507 219.669 292.326 220.008C288.37 227.02 282.162 231.951 274.758 234.938C274.505 235.041 274.251 235.144 273.99 235.25C267.635 237.593 259.855 238.182 253.4 236.024C252.974 235.919 252.974 235.919 252.54 235.812C244.684 233.822 237.837 228.254 233.49 221.544C228.919 213.752 226.354 204.588 228.535 195.548C228.732 194.92 228.935 194.293 229.146 193.67C229.216 193.387 229.286 193.103 229.358 192.812C230.677 187.595 233.636 183.206 237.11 179.19C237.321 178.942 237.532 178.694 237.749 178.439C243.687 172.006 252.926 168.165 261.59 168.217Z" fill="#E0EAF3"/>
<path d="M85.7949 222.63C90.2211 223.059 94.6392 223.53 99.0546 224.058C106.659 224.965 114.274 225.775 121.892 226.56C126.218 227.008 130.54 227.481 134.857 228.008C139.383 228.559 143.913 229.066 148.444 229.576C151.423 229.912 154.402 230.248 157.471 230.594C157.471 238.717 157.471 246.841 157.471 255.21C155.569 255.398 153.668 255.586 151.709 255.78C149.142 256.034 146.576 256.289 144.009 256.545C143.511 256.594 143.511 256.594 143.004 256.645C134.77 257.465 126.539 258.298 118.317 259.234C113.775 259.751 109.232 260.218 104.68 260.63C102.354 260.84 100.03 261.061 97.7084 261.309C97.4682 261.334 97.228 261.36 96.9805 261.386C95.8425 261.508 94.7048 261.631 93.5673 261.757C91.3223 261.999 89.1389 262.138 86.8809 262.088C87.0458 261.522 87.2119 260.957 87.3787 260.391C87.4711 260.076 87.5635 259.761 87.6587 259.437C87.9669 258.468 87.9669 258.468 88.3176 257.68C91.91 247.842 91.2172 235.014 86.8809 225.526C86.6835 225.141 86.4861 224.755 86.2828 224.358C85.7949 223.354 85.7949 223.354 85.7949 222.63Z" fill="#FE4D5C"/>
<path d="M211.144 75.8304C215.247 79.4491 218.706 83.2836 221.544 87.966C221.678 88.1836 221.812 88.4012 221.95 88.6253C228.069 98.7111 229.765 111.608 227.114 123.046C224.003 135.053 216.645 145.831 205.978 152.339C203.865 153.579 201.701 154.668 199.462 155.66C199.234 155.762 199.007 155.864 198.773 155.97C187.497 160.924 174.428 160.382 163.077 156.026C151.475 151.31 142.589 142.032 137.56 130.682C137.458 130.455 137.356 130.227 137.25 129.993C132.261 118.639 132.872 105.741 137.187 94.3169C139.45 88.727 142.843 84.005 146.972 79.64C147.265 79.3195 147.558 78.9989 147.86 78.6686C164.184 61.4402 193.248 60.5545 211.144 75.8304ZM151.143 85.4801C147.388 89.7475 144.215 95.1601 142.628 100.636C142.493 101.09 142.359 101.544 142.221 102.012C140.465 108.495 140.586 115.507 142.266 121.994C142.362 122.388 142.459 122.782 142.559 123.187C145.308 133.209 152.263 141.696 161.132 146.947C164.547 148.886 168.14 150.351 171.95 151.316C172.264 151.398 172.579 151.479 172.903 151.563C183.198 153.739 194.406 151.213 203.184 145.589C205.091 144.28 206.806 142.737 208.512 141.18C208.753 140.965 208.993 140.75 209.241 140.528C216.859 133.356 220.568 123.199 220.883 112.916C221.113 101.492 216.745 91.7574 208.942 83.5315C200.539 75.46 189.834 72.1902 178.382 72.3237C167.843 72.6029 158.334 78.0368 151.143 85.4801Z" fill="#2E4557"/>
<path d="M230.187 228.399C230.441 228.765 230.695 229.131 230.956 229.508C237.539 237.441 247.128 242.691 257.382 243.988C259.005 244.075 260.621 244.073 262.247 244.056C262.658 244.056 263.07 244.055 263.494 244.055C266.179 244.041 268.829 243.89 271.5 243.626C271.555 244.017 271.555 244.017 271.61 244.415C272.436 250.263 273.26 255.598 275.861 260.95C276.206 261.726 276.206 261.726 276.206 262.45C273.755 262.5 271.418 262.307 268.989 261.997C264.643 261.469 260.292 261.045 255.934 260.64C251.826 260.257 247.722 259.868 243.626 259.373C239.68 258.897 235.728 258.52 231.771 258.151C226.117 257.624 220.469 257.049 214.825 256.432C214.306 256.375 214.306 256.375 213.776 256.317C212.775 256.208 211.774 256.098 210.773 255.988C210.489 255.956 210.205 255.925 209.912 255.893C206.909 255.56 203.911 255.201 200.91 254.848C200.91 246.964 200.91 239.079 200.91 230.956C201.855 230.484 202.683 230.442 203.735 230.326C204.177 230.276 204.618 230.227 205.073 230.176C205.558 230.123 206.043 230.07 206.528 230.017C207.027 229.962 207.526 229.906 208.025 229.851C209.075 229.734 210.124 229.619 211.174 229.504C212.506 229.358 213.839 229.21 215.171 229.062C216.204 228.947 217.237 228.833 218.271 228.719C218.997 228.639 219.722 228.559 220.448 228.478C221.778 228.333 223.109 228.194 224.44 228.06C224.885 228.013 225.329 227.967 225.787 227.919C226.21 227.879 226.632 227.84 227.067 227.799C227.443 227.763 227.819 227.726 228.206 227.688C229.146 227.698 229.146 227.698 230.187 228.399Z" fill="#FE4D5C"/>
<path d="M261.59 168.217C261.935 168.218 262.281 168.219 262.636 168.221C265.694 168.267 268.533 168.67 271.5 169.416C271.789 169.486 272.078 169.556 272.375 169.628C280.717 172.038 288.394 178.112 292.589 185.692C297.189 194.406 298.325 204.084 295.392 213.58C294.706 215.477 293.824 217.242 292.858 219.01C292.683 219.339 292.507 219.669 292.326 220.008C288.37 227.02 282.162 231.951 274.758 234.938C274.505 235.041 274.251 235.144 273.99 235.25C267.635 237.593 259.855 238.182 253.4 236.024C252.974 235.919 252.974 235.919 252.54 235.812C244.684 233.822 237.837 228.254 233.49 221.544C228.919 213.752 226.354 204.588 228.535 195.548C228.732 194.92 228.935 194.293 229.146 193.67C229.216 193.387 229.286 193.103 229.358 192.812C230.677 187.595 233.636 183.206 237.11 179.19C237.321 178.942 237.532 178.694 237.749 178.439C243.687 172.006 252.926 168.165 261.59 168.217ZM242.178 184.258C236.651 190.894 234.815 198.186 235.374 206.742C236.003 211.698 238.3 216.283 241.454 220.096C241.708 220.438 241.708 220.438 241.967 220.786C245.774 225.698 252.227 228.704 258.218 229.709C265.599 230.599 273.055 229.057 278.975 224.412C279.256 224.182 279.537 223.952 279.826 223.716C280.055 223.546 280.283 223.376 280.519 223.201C285.253 219.526 287.717 213.766 289.238 208.15C289.334 207.805 289.334 207.805 289.432 207.453C290.79 201.391 289.129 194.138 286.032 188.917C281.404 181.764 275.27 177.783 267.027 175.718C257.863 174.297 248.518 177.51 242.178 184.258Z" fill="#2F4557"/>
<path d="M173.997 224.212C174.595 224.211 174.595 224.211 175.205 224.21C176.045 224.21 176.885 224.215 177.725 224.224C179.005 224.236 180.284 224.231 181.564 224.224C182.382 224.227 183.201 224.23 184.02 224.235C184.4 224.233 184.779 224.231 185.171 224.23C187.838 224.272 189.923 224.668 191.881 226.637C192.045 226.883 192.21 227.128 192.38 227.381C192.551 227.629 192.722 227.876 192.899 228.131C193.725 229.452 193.721 230.337 193.733 231.904C193.736 232.15 193.738 232.396 193.741 232.65C193.748 233.466 193.752 234.283 193.756 235.099C193.757 235.379 193.759 235.658 193.76 235.946C193.768 237.425 193.773 238.905 193.776 240.385C193.78 241.909 193.793 243.432 193.807 244.956C193.817 246.132 193.82 247.307 193.821 248.482C193.823 249.043 193.827 249.605 193.834 250.166C193.903 256.317 193.903 256.317 191.71 258.65C190.098 260.101 188.536 260.723 186.391 260.757C186.032 260.764 185.673 260.771 185.303 260.778C184.727 260.782 184.727 260.782 184.139 260.787C183.739 260.791 183.34 260.795 182.928 260.8C182.083 260.806 181.239 260.811 180.394 260.814C179.108 260.821 177.823 260.843 176.538 260.866C175.716 260.871 174.893 260.875 174.07 260.878C173.689 260.887 173.308 260.895 172.915 260.905C170.263 260.889 168.49 260.285 166.519 258.468C165.899 257.639 165.51 256.884 165.071 255.934C164.952 255.695 164.832 255.456 164.709 255.21C164.665 254.414 164.644 253.617 164.634 252.82C164.63 252.575 164.627 252.329 164.623 252.076C164.612 251.261 164.604 250.446 164.598 249.632C164.595 249.353 164.593 249.074 164.59 248.787C164.579 247.309 164.57 245.831 164.563 244.353C164.556 243.134 164.544 241.915 164.526 240.695C164.504 239.22 164.493 237.746 164.489 236.271C164.486 235.71 164.479 235.15 164.469 234.59C164.371 229.161 164.371 229.161 166.23 226.887C168.646 224.525 170.664 224.17 173.997 224.212Z" fill="#E0EAF3"/>
<path d="M182.086 171.95C183.59 172.669 184.244 173.399 185.023 174.859C185.213 175.211 185.403 175.564 185.599 175.927C185.791 176.294 185.983 176.662 186.181 177.041C186.38 177.409 186.579 177.778 186.784 178.158C188.24 180.887 188.24 180.887 188.24 181.724C188.482 181.737 188.724 181.751 188.973 181.765C191.273 181.922 193.544 182.194 195.819 182.561C196.21 182.618 196.21 182.618 196.61 182.677C198.293 182.963 199.328 183.424 200.548 184.62C201.138 185.8 201.079 186.567 200.91 187.878C199.953 189.449 198.568 190.63 197.147 191.771C194.729 193.614 194.729 193.614 193.422 196.222C193.515 197.357 193.73 198.365 194.032 199.462C194.165 200.17 194.293 200.879 194.416 201.589C194.477 201.914 194.537 202.239 194.6 202.574C195.059 205.138 195.059 205.138 194.375 206.216C193.373 207.469 192.748 208.076 191.16 208.298C188.777 208.265 186.647 206.668 184.622 205.552C184.281 205.371 183.94 205.19 183.589 205.004C183.283 204.835 182.976 204.666 182.661 204.492C181.002 203.918 179.563 204.439 178.031 205.173C177.633 205.363 177.633 205.363 177.226 205.556C176.956 205.688 176.685 205.82 176.407 205.955C176.132 206.086 175.857 206.216 175.574 206.351C174.427 206.901 173.374 207.442 172.312 208.15C170.883 208.361 169.987 208.485 168.731 207.748C167.678 206.754 167.271 205.997 167.166 204.54C167.314 202.272 167.72 200.034 168.184 197.81C168.515 196.057 168.515 196.057 167.877 194.476C167.668 194.285 167.459 194.093 167.244 193.896C167.013 193.681 166.782 193.466 166.545 193.244C165.802 192.589 165.053 191.941 164.302 191.294C161.219 188.601 161.219 188.601 160.863 186.611C161.142 185.052 161.627 184.099 162.9 183.172C164.384 182.696 165.881 182.504 167.425 182.312C168.037 182.223 168.037 182.223 168.662 182.133C170.374 181.892 172.028 181.69 173.76 181.724C173.862 181.459 173.965 181.194 174.071 180.922C174.704 179.376 175.478 177.911 176.248 176.43C176.406 176.119 176.563 175.808 176.725 175.488C176.88 175.189 177.036 174.891 177.196 174.583C177.335 174.312 177.475 174.041 177.618 173.762C178.812 171.977 179.996 171.73 182.086 171.95Z" fill="#2F4456"/>
<path d="M142.628 150.23C143.352 150.815 143.352 150.815 144.076 151.633C145.621 153.279 147.276 154.615 149.084 155.954C149.592 156.332 150.093 156.719 150.592 157.108C150.592 157.227 150.592 157.347 150.592 157.47C150.377 157.477 150.162 157.484 149.941 157.492C141.423 157.79 133.697 158.779 125.976 162.538C125.623 162.709 125.269 162.88 124.905 163.057C113.661 168.869 104.778 179.569 100.838 191.583C100.363 193.112 99.9476 194.654 99.5499 196.204C99.4421 196.612 99.3343 197.02 99.2233 197.44C98.2938 201.315 98.0399 205.271 97.7399 209.236C97.1154 209.241 96.4908 209.244 95.8663 209.247C95.5185 209.249 95.1707 209.251 94.8124 209.254C93.3555 209.229 91.944 209.063 90.4999 208.874C90.2139 199.737 92.3648 191.035 96.2919 182.81C96.464 182.449 96.464 182.449 96.6396 182.081C99.3017 176.609 102.746 171.741 107.006 167.403C107.475 166.922 107.932 166.431 108.389 165.939C115.91 158.015 131.167 148.72 142.628 150.23Z" fill="#2F4657"/>
<path d="M155.66 262.45C155.092 264.083 154.211 265.454 153.261 266.884C152.9 267.435 152.54 267.986 152.18 268.537C151.983 268.837 151.787 269.137 151.585 269.445C150.421 271.232 149.274 273.029 148.125 274.826C147.882 275.206 147.638 275.586 147.387 275.978C146.145 277.917 144.91 279.861 143.69 281.814C143.457 282.184 143.225 282.554 142.986 282.935C142.543 283.641 142.103 284.348 141.665 285.056C141.468 285.369 141.272 285.682 141.069 286.004C140.898 286.28 140.726 286.556 140.549 286.84C140.399 287.034 140.248 287.228 140.094 287.428C139.855 287.428 139.616 287.428 139.37 287.428C138.698 285.792 138.028 284.156 137.359 282.519C137.131 281.961 136.903 281.405 136.674 280.848C136.346 280.049 136.019 279.249 135.693 278.449C135.59 278.199 135.487 277.949 135.381 277.692C134.664 275.926 134.664 275.926 134.664 275.12C134.456 275.122 134.249 275.124 134.036 275.126C129.403 275.162 124.806 275.078 120.184 274.758C120.816 272.898 121.868 271.303 122.899 269.645C123.079 269.351 123.26 269.058 123.446 268.755C125.536 265.365 125.536 265.365 126.479 265.138C127.024 265.087 127.024 265.087 127.58 265.035C128.199 264.973 128.199 264.973 128.831 264.91C129.281 264.871 129.73 264.831 130.194 264.79C130.659 264.745 131.123 264.7 131.602 264.654C132.845 264.534 134.088 264.42 135.331 264.307C136.569 264.193 137.806 264.075 139.044 263.957C140.945 263.775 142.846 263.597 144.747 263.42C147.238 263.186 149.725 262.931 152.211 262.653C153.374 262.526 154.488 262.45 155.66 262.45Z" fill="#DFE9F2"/>
<path d="M206.34 262.45C213.438 263.125 220.535 263.806 227.624 264.576C228.182 264.636 228.741 264.696 229.299 264.755C230.079 264.838 230.858 264.923 231.637 265.009C232.076 265.057 232.514 265.105 232.965 265.154C236.359 265.676 236.359 265.676 237.462 266.794C237.643 267.084 237.825 267.374 238.012 267.673C238.215 267.991 238.417 268.309 238.626 268.636C238.827 268.969 239.029 269.302 239.237 269.645C239.447 269.975 239.657 270.305 239.873 270.644C241.531 273.29 241.531 273.29 241.816 274.758C238.651 275.124 235.519 275.163 232.336 275.143C231.848 275.141 231.361 275.139 230.873 275.138C229.694 275.133 228.515 275.127 227.336 275.12C227.279 275.328 227.223 275.537 227.164 275.751C226.423 278.357 225.433 280.82 224.372 283.31C224.12 283.907 224.12 283.907 223.864 284.516C223.454 285.488 223.043 286.458 222.63 287.428C222.391 287.428 222.152 287.428 221.906 287.428C221.254 286.482 220.648 285.534 220.051 284.555C219.656 283.919 219.262 283.285 218.867 282.65C218.656 282.309 218.445 281.968 218.227 281.617C217.078 279.773 215.906 277.945 214.734 276.115C214.493 275.739 214.252 275.362 214.004 274.974C212.745 273.007 211.476 271.048 210.193 269.097C209.941 268.714 209.689 268.331 209.43 267.936C208.947 267.202 208.462 266.47 207.976 265.738C207.761 265.411 207.546 265.084 207.324 264.748C207.133 264.46 206.943 264.173 206.746 263.877C206.34 263.174 206.34 263.174 206.34 262.45Z" fill="#E0EAF3"/>
<path d="M77.4674 224.802C79.6417 225.744 80.352 227.506 81.2174 229.63C84.329 238.36 84.6882 249.56 80.7444 258.097C79.2474 261.153 79.2474 261.153 78.1008 261.882C77.8918 261.95 77.6827 262.018 77.4674 262.088C71.9882 255.627 71.9206 245.97 72.4983 237.899C73.002 233.347 74.1078 228.162 77.4674 224.802Z" fill="#FE4D5C"/>
<path d="M141.179 113.306C141.299 113.306 141.418 113.306 141.541 113.306C141.581 113.513 141.621 113.72 141.662 113.934C143.906 125.359 149.141 134.878 158.899 141.548C167.762 147.26 177.984 149.434 188.443 147.651C199.131 145.243 208.524 139.19 214.449 129.892C216.581 126.439 218.301 122.717 219.395 118.804C219.733 117.65 219.733 117.65 220.457 116.564C220.566 124.089 216.66 132.031 211.769 137.56C211.508 137.865 211.247 138.169 210.977 138.483C205.513 144.735 198.803 148.842 190.773 150.954C190.348 151.088 189.922 151.223 189.484 151.361C179.747 153.84 169.195 151.576 160.607 146.705C152.951 142.13 147.724 135.435 144.075 127.424C143.923 127.096 143.77 126.769 143.613 126.431C141.842 122.354 141.102 117.73 141.179 113.306Z" fill="#BCC5CD"/>
<path d="M274.848 192.833C276.131 192.843 276.525 192.919 277.654 193.625C278.383 194.4 278.717 194.767 278.785 195.825C278.77 196.099 278.755 196.374 278.74 196.657C278.732 196.927 278.725 197.198 278.717 197.477C277.852 199.769 274.941 201.234 272.993 202.584C272.449 202.965 271.905 203.345 271.361 203.725C271.085 203.918 270.809 204.111 270.524 204.309C269.446 205.062 268.373 205.822 267.3 206.582C266.784 206.947 266.267 207.311 265.749 207.673C264.557 208.508 263.376 209.351 262.218 210.233C258.707 212.87 258.707 212.87 256.296 212.785C254.322 211.991 252.953 209.741 251.658 208.105C251.469 207.868 251.28 207.63 251.086 207.386C245.919 200.855 245.919 200.855 246.16 198.014C246.81 197.017 247.265 196.375 248.332 195.842C250.187 195.702 251.161 195.865 252.676 196.928C253.347 197.649 253.347 197.649 253.961 198.459C254.296 198.895 254.296 198.895 254.637 199.34C254.976 199.792 254.976 199.792 255.323 200.254C255.557 200.56 255.79 200.866 256.031 201.181C256.605 201.933 257.176 202.688 257.744 203.444C258.988 202.986 260.018 202.46 261.098 201.693C261.388 201.489 261.677 201.285 261.976 201.074C262.282 200.856 262.587 200.637 262.902 200.412C263.377 200.076 263.377 200.076 263.861 199.734C264.515 199.271 265.169 198.807 265.823 198.342C266.755 197.68 267.689 197.021 268.625 196.364C269.184 195.971 269.742 195.579 270.301 195.186C270.563 195.002 270.825 194.817 271.095 194.628C273.582 192.873 273.582 192.873 274.848 192.833Z" fill="#2F4557"/>
<path d="M201.273 77.8301C201.809 78.1254 201.809 78.1254 202.356 78.4268C209.867 82.8898 215.512 90.3978 218.649 98.4641C219.1 100.457 219.1 100.457 218.649 101.36C218.41 101.36 218.171 101.36 217.925 101.36C217.754 100.997 217.582 100.633 217.406 100.258C212.596 90.2312 205.372 82.6272 194.785 78.6813C184.518 75.1126 173.411 75.6889 163.58 80.2731C160.686 81.6779 158.136 83.3676 155.661 85.4321C155.323 85.7111 154.984 85.9902 154.636 86.2777C149.388 90.8132 146.13 96.3844 143.715 102.808C143.357 102.808 142.998 102.808 142.629 102.808C142.763 95.3023 148.813 87.6916 153.917 82.7199C167.279 70.8227 185.75 69.2366 201.273 77.8301Z" fill="#EDF2F8"/>
<path d="M200.91 251.228C211.662 251.795 211.662 251.795 213.218 252.314C213.932 252.397 214.648 252.465 215.365 252.523C215.816 252.562 216.268 252.6 216.734 252.64C216.978 252.661 217.223 252.681 217.474 252.702C223.507 253.21 229.521 253.865 235.535 254.558C239.222 254.98 242.908 255.347 246.606 255.658C250.596 255.997 254.577 256.418 258.559 256.839C259.3 256.917 260.041 256.995 260.782 257.072C262.564 257.259 264.346 257.447 266.128 257.635C267.796 257.812 269.464 257.987 271.132 258.163C271.699 258.222 272.265 258.282 272.832 258.341C273.427 258.404 273.427 258.404 274.034 258.468C274.154 258.229 274.273 257.99 274.396 257.744C274.699 258.392 275.001 259.041 275.301 259.69C275.469 260.051 275.637 260.412 275.81 260.784C276.206 261.726 276.206 261.726 276.206 262.45C273.755 262.5 271.418 262.307 268.989 261.998C264.643 261.469 260.292 261.045 255.934 260.64C251.826 260.257 247.722 259.869 243.626 259.373C239.68 258.897 235.728 258.52 231.771 258.151C226.117 257.624 220.469 257.049 214.825 256.432C214.306 256.375 214.306 256.375 213.776 256.317C209.485 255.848 205.196 255.36 200.91 254.848C200.91 253.653 200.91 252.459 200.91 251.228Z" fill="#D6B76C"/>
<path d="M85.7949 222.63C90.2211 223.059 94.6392 223.53 99.0546 224.058C106.659 224.965 114.274 225.775 121.892 226.56C126.218 227.008 130.54 227.481 134.857 228.008C139.383 228.559 143.913 229.066 148.444 229.576C149.327 229.676 150.21 229.775 151.093 229.875C153.219 230.115 155.345 230.355 157.471 230.594C157.471 231.789 157.471 232.983 157.471 234.214C148 233.568 138.552 232.635 129.144 231.363C124.163 230.691 119.169 230.178 114.169 229.671C111.436 229.393 108.703 229.107 105.971 228.821C103.529 228.568 101.086 228.325 98.6418 228.097C97.2868 227.968 95.9332 227.826 94.5798 227.681C93.9635 227.618 93.3467 227.559 92.7294 227.507C88.1116 227.112 88.1116 227.112 86.8337 225.851C86.2153 224.783 85.7949 223.874 85.7949 222.63Z" fill="#F7E2A8"/>
<path d="M157.471 251.59C157.471 252.785 157.471 253.979 157.471 255.21C157.144 255.242 156.818 255.275 156.481 255.308C152.324 255.719 148.166 256.131 144.009 256.545C143.677 256.578 143.346 256.611 143.004 256.645C134.77 257.465 126.539 258.298 118.317 259.234C113.775 259.751 109.232 260.218 104.68 260.63C102.354 260.84 100.03 261.061 97.7083 261.309C97.4681 261.334 97.228 261.36 96.9805 261.386C95.8425 261.508 94.7047 261.631 93.5673 261.757C91.3222 261.999 89.1388 262.138 86.8809 262.088C87.2392 260.893 87.5976 259.699 87.9669 258.468C100.194 257.02 100.194 257.02 105.23 256.635C107.913 256.43 110.572 256.153 113.239 255.798C117.514 255.234 121.8 254.85 126.094 254.467C130.328 254.087 134.555 253.664 138.778 253.186C139.217 253.137 139.656 253.087 140.108 253.036C142.267 252.791 144.426 252.542 146.584 252.289C147.381 252.197 148.177 252.106 148.974 252.014C149.33 251.971 149.685 251.928 150.052 251.884C152.533 251.602 154.975 251.544 157.471 251.59Z" fill="#D8B96D"/>
<path d="M221.25 150.448C223.542 150.772 225.798 151.193 228.06 151.678C228.392 151.748 228.723 151.818 229.064 151.89C235.639 153.487 241.679 156.648 247.201 160.479C247.423 160.631 247.646 160.784 247.875 160.941C248.488 161.38 248.488 161.38 249.418 162.176C249.418 162.534 249.418 162.893 249.418 163.262C249.13 163.38 248.841 163.498 248.544 163.62C248.161 163.778 247.777 163.936 247.382 164.099C246.985 164.262 246.588 164.426 246.179 164.594C245.03 165.068 245.03 165.068 243.83 165.773C242.902 166.158 242.902 166.158 242.109 165.918C240.821 165.305 239.607 164.593 238.377 163.873C235.863 162.428 233.332 161.328 230.594 160.366C230.134 160.17 229.674 159.974 229.214 159.778C226.894 158.905 224.343 158.599 221.906 158.194C221.514 158.128 221.122 158.062 220.718 157.995C218.892 157.774 217.069 157.701 215.232 157.628C214.679 157.605 214.679 157.605 214.115 157.581C213.213 157.543 212.311 157.506 211.408 157.47C212.55 156.296 213.71 155.236 215.006 154.235C216.103 153.382 217.051 152.556 217.947 151.497C219.114 150.504 219.734 150.34 221.25 150.448Z" fill="#2F4557"/>
<path d="M155.661 160.004C156.143 160.367 156.626 160.729 157.109 161.09C156.505 161.098 156.505 161.098 155.889 161.106C154.359 161.127 152.83 161.155 151.3 161.185C150.645 161.197 149.99 161.207 149.334 161.215C135.561 161.395 123.944 165.593 113.669 174.846C113.428 175.061 113.187 175.275 112.939 175.496C104.37 183.585 99.9906 195.345 98.1029 206.702C97.9834 206.702 97.8639 206.702 97.7409 206.702C97.6961 204.699 97.8267 202.854 98.1934 200.887C98.242 200.622 98.2905 200.357 98.3406 200.083C100.439 189 105.398 179.246 113.307 171.226C113.606 170.922 113.906 170.617 114.215 170.304C121.945 162.881 132.033 158.548 142.629 157.47C142.934 157.434 143.239 157.398 143.553 157.361C148.474 156.808 151.662 156.902 155.661 160.004Z" fill="#F39383"/>
<path d="M235.3 199.824C235.42 199.824 235.539 199.824 235.662 199.824C235.698 200.192 235.733 200.559 235.77 200.938C236.401 206.951 238.153 212.22 242.178 216.838C242.434 217.133 242.691 217.428 242.955 217.732C247.243 222.34 253.539 225.679 259.905 225.949C268.43 226.037 275.462 224.093 281.727 218.06C286.623 213.128 288.807 206.627 289.238 199.824C289.358 199.824 289.477 199.824 289.6 199.824C289.808 207.265 289.808 207.265 288.514 210.684C288.29 211.331 288.29 211.331 288.06 211.991C286.952 215.062 285.526 217.551 283.446 220.096C283.276 220.325 283.107 220.553 282.932 220.789C278.949 225.92 272.033 229.037 265.708 229.87C257.602 230.306 250.447 228.387 244.124 223.105C239.224 218.556 236.028 212.264 235.3 205.616C235.263 204.597 235.266 203.581 235.278 202.562C235.279 202.297 235.281 202.032 235.283 201.759C235.287 201.114 235.293 200.469 235.3 199.824Z" fill="#BDC6CD"/>
<path d="M270.415 176.656C271.074 176.881 271.074 176.881 271.747 177.11C274.808 178.213 277.292 179.653 279.827 181.724C280.055 181.894 280.284 182.064 280.52 182.239C284.897 185.637 288.384 191.844 289.239 197.29C289.312 198.624 289.308 199.938 289.239 201.272C289.119 201.272 289 201.272 288.877 201.272C288.824 201.009 288.77 200.746 288.716 200.474C287.23 193.816 283.247 187.767 277.519 183.986C273.411 181.514 269.081 179.816 264.261 179.552C263.777 179.523 263.777 179.523 263.284 179.494C256.081 179.273 249.481 181.985 244.038 186.581C241.054 189.43 239.096 192.678 237.488 196.453C237.111 197.29 237.111 197.29 236.387 198.376C235.94 193.328 238.194 189.677 241.093 185.706C241.259 185.472 241.425 185.238 241.596 184.998C245.52 179.951 252.042 176.776 258.206 175.731C262.33 175.238 266.465 175.29 270.415 176.656Z" fill="#EDF2F8"/>
<path d="M289.238 234.576C290.354 242.289 290.36 252.695 285.482 259.237C285.168 259.581 284.855 259.924 284.532 260.278C282.281 259.253 281.61 257.432 280.708 255.233C278.922 250.359 278.581 245.853 278.74 240.73C279.107 240.559 279.475 240.388 279.854 240.211C282.846 238.785 285.499 237.254 288.094 235.187C288.876 234.576 288.876 234.576 289.238 234.576Z" fill="#FE4D5C"/>
<path d="M206.34 262.45C207.534 262.569 208.729 262.689 209.96 262.812C209.601 262.991 209.601 262.991 209.236 263.174C211.297 266.594 213.389 269.988 215.571 273.333C215.766 273.632 215.961 273.93 216.162 274.238C216.946 275.439 217.732 276.638 218.52 277.837C219.084 278.695 219.647 279.555 220.209 280.414C220.381 280.674 220.552 280.933 220.729 281.201C221.906 283.002 221.906 283.002 221.906 283.808C222.145 283.808 222.384 283.808 222.63 283.808C222.669 283.56 222.709 283.313 222.749 283.058C223.035 281.81 223.483 280.705 223.977 279.525C224.073 279.294 224.169 279.064 224.268 278.826C224.573 278.096 224.88 277.366 225.186 276.636C225.394 276.138 225.602 275.641 225.809 275.143C226.316 273.928 226.826 272.714 227.336 271.5C229.106 271.376 230.877 271.272 232.65 271.186C233.252 271.154 233.854 271.117 234.456 271.074C239.467 270.724 239.467 270.724 240.813 271.759C241.452 272.757 241.816 273.566 241.816 274.758C238.651 275.124 235.519 275.163 232.336 275.143C231.848 275.141 231.361 275.139 230.873 275.138C229.694 275.133 228.515 275.127 227.336 275.12C227.279 275.328 227.223 275.537 227.164 275.751C226.423 278.357 225.433 280.82 224.372 283.31C224.12 283.907 224.12 283.907 223.864 284.516C223.454 285.488 223.043 286.458 222.63 287.428C222.391 287.428 222.152 287.428 221.906 287.428C221.254 286.482 220.648 285.534 220.051 284.555C219.656 283.919 219.262 283.285 218.867 282.65C218.656 282.309 218.445 281.968 218.227 281.617C217.078 279.773 215.906 277.945 214.734 276.115C214.493 275.739 214.252 275.362 214.004 274.974C212.745 273.007 211.476 271.048 210.193 269.097C209.941 268.714 209.689 268.331 209.43 267.936C208.947 267.202 208.462 266.47 207.976 265.738C207.761 265.411 207.546 265.084 207.324 264.748C207.133 264.46 206.943 264.173 206.746 263.877C206.34 263.174 206.34 263.174 206.34 262.45Z" fill="#BCC5CD"/>
<path d="M155.66 262.45C155.092 264.083 154.211 265.454 153.261 266.885C152.9 267.435 152.54 267.986 152.18 268.538C151.983 268.837 151.787 269.137 151.585 269.446C150.421 271.232 149.274 273.029 148.125 274.826C147.882 275.206 147.638 275.586 147.387 275.978C146.145 277.917 144.91 279.861 143.69 281.814C143.457 282.184 143.225 282.554 142.986 282.935C142.543 283.641 142.103 284.348 141.665 285.056C141.468 285.369 141.272 285.682 141.069 286.004C140.898 286.28 140.726 286.556 140.549 286.841C140.399 287.034 140.248 287.228 140.094 287.428C139.855 287.428 139.616 287.428 139.37 287.428C138.698 285.792 138.028 284.156 137.359 282.519C137.131 281.962 136.903 281.405 136.674 280.848C136.346 280.049 136.019 279.249 135.693 278.449C135.59 278.199 135.487 277.949 135.381 277.692C134.664 275.926 134.664 275.926 134.664 275.12C134.456 275.122 134.249 275.124 134.036 275.126C129.403 275.162 124.806 275.078 120.184 274.758C120.779 273.204 121.514 271.845 122.356 270.414C122.475 270.653 122.595 270.892 122.718 271.138C128.631 271.317 128.631 271.317 134.664 271.5C135.336 273.078 136.006 274.656 136.674 276.235C136.902 276.772 137.13 277.309 137.359 277.846C137.688 278.617 138.014 279.389 138.34 280.161C138.443 280.401 138.546 280.641 138.652 280.888C139.087 281.925 139.37 282.671 139.37 283.808C139.609 283.808 139.847 283.808 140.094 283.808C140.188 283.549 140.283 283.291 140.381 283.024C140.838 281.951 141.383 281.037 142.015 280.058C142.254 279.687 142.493 279.316 142.739 278.933C143.12 278.345 143.12 278.345 143.51 277.745C143.773 277.337 144.036 276.929 144.299 276.521C145.067 275.328 145.838 274.138 146.61 272.948C147.003 272.34 147.396 271.732 147.789 271.124C148.287 270.354 148.785 269.584 149.285 268.816C149.989 267.733 150.686 266.648 151.359 265.547C151.584 265.182 151.808 264.817 152.04 264.441C152.226 264.131 152.413 263.821 152.605 263.502C153.475 262.348 154.252 262.45 155.66 262.45Z" fill="#BCC6CD"/>
<path d="M219.373 157.47C219.697 157.509 220.022 157.548 220.357 157.589C228.179 158.586 235.763 161.077 242.179 165.796C242.179 166.035 242.179 166.274 242.179 166.52C241.228 167.334 241.228 167.334 240.007 167.968C238.374 167.57 236.962 166.825 235.482 166.045C227.678 162.065 219.761 161.456 211.16 161.248C210.55 161.233 209.94 161.217 209.331 161.201C207.851 161.163 206.372 161.126 204.893 161.09C205.113 160.926 205.334 160.763 205.562 160.594C206.128 160.165 206.679 159.714 207.219 159.252C211.045 156.373 214.802 156.909 219.373 157.47Z" fill="#F39483"/>
<path d="M230.277 228.467C230.889 229.405 231.469 230.356 232.042 231.318C229.449 231.692 226.876 232.047 224.259 232.2C222.056 232.341 219.885 232.606 217.698 232.902C214.392 233.348 211.082 233.742 207.766 234.101C207.333 234.148 206.9 234.196 206.455 234.245C205.843 234.31 205.843 234.31 205.219 234.377C204.678 234.434 204.678 234.434 204.127 234.494C203.05 234.578 201.99 234.59 200.91 234.576C200.91 233.381 200.91 232.187 200.91 230.956C201.855 230.484 202.683 230.443 203.735 230.326C204.177 230.276 204.618 230.227 205.073 230.176C205.558 230.123 206.043 230.07 206.528 230.017C207.027 229.962 207.526 229.906 208.025 229.851C209.075 229.734 210.124 229.619 211.174 229.504C212.506 229.358 213.839 229.21 215.171 229.062C216.204 228.947 217.237 228.833 218.271 228.719C218.997 228.639 219.722 228.559 220.448 228.478C221.778 228.333 223.109 228.195 224.44 228.06C225.105 227.989 225.105 227.989 225.784 227.917C226.206 227.876 226.627 227.836 227.061 227.795C227.623 227.739 227.623 227.739 228.197 227.682C229.146 227.698 229.146 227.698 230.277 228.467Z" fill="#F4DFA7"/>
<path d="M180.637 183.534C180.876 183.534 181.115 183.534 181.361 183.534C181.505 183.813 181.65 184.092 181.798 184.38C181.99 184.743 182.182 185.106 182.379 185.48C182.568 185.841 182.757 186.202 182.952 186.574C183.494 187.599 183.494 187.599 184.619 188.24C185.361 188.401 186.109 188.534 186.859 188.647C187.449 188.738 187.449 188.738 188.051 188.831C188.503 188.897 188.503 188.897 188.963 188.964C188.963 189.203 188.963 189.442 188.963 189.688C188.422 190.208 188.422 190.208 187.719 190.774C186.736 191.551 186.736 191.551 186.067 192.584C186.041 193.508 186.033 194.421 186.045 195.344C186.046 195.6 186.048 195.856 186.049 196.119C186.054 196.751 186.06 197.382 186.067 198.014C185.732 197.857 185.732 197.857 185.39 197.697C182.939 196.623 180.861 195.975 178.262 196.894C177.468 197.241 176.697 197.609 175.931 198.014C175.956 197.651 175.982 197.289 176.008 196.915C176.247 193.749 176.247 193.749 174.89 191C174.281 190.426 173.785 190.063 173.035 189.688C173.035 189.449 173.035 189.21 173.035 188.964C173.474 188.917 173.474 188.917 173.922 188.869C176.339 188.57 176.339 188.57 178.465 187.471C179.338 186.216 180.017 184.929 180.637 183.534Z" fill="#D92635"/>
<path d="M164.71 251.228C165.434 252.314 165.434 252.314 166.022 253.536C166.935 255.112 168.112 255.945 169.778 256.658C171.158 256.904 172.506 256.904 173.905 256.886C174.49 256.887 174.49 256.887 175.087 256.888C175.908 256.888 176.729 256.883 177.55 256.874C178.8 256.862 180.049 256.867 181.299 256.874C182.1 256.871 182.901 256.868 183.702 256.863C184.072 256.865 184.442 256.867 184.823 256.869C187.597 256.823 189.98 256.336 192.018 254.35C192.623 253.333 192.99 252.366 193.308 251.228C193.427 251.228 193.547 251.228 193.67 251.228C193.843 253.843 193.82 255.942 192.222 258.106C190.87 259.558 189.334 260.516 187.343 260.742C187.029 260.747 186.715 260.752 186.391 260.757C186.032 260.764 185.673 260.771 185.303 260.778C184.727 260.782 184.727 260.782 184.139 260.787C183.739 260.791 183.34 260.795 182.928 260.8C182.084 260.806 181.239 260.811 180.394 260.814C179.109 260.821 177.824 260.843 176.538 260.866C175.716 260.871 174.893 260.875 174.071 260.878C173.499 260.891 173.499 260.891 172.915 260.905C170.263 260.889 168.49 260.285 166.52 258.468C165.899 257.639 165.51 256.884 165.072 255.934C164.952 255.695 164.833 255.456 164.71 255.21C164.684 254.532 164.679 253.853 164.687 253.174C164.69 252.811 164.694 252.448 164.697 252.074C164.701 251.795 164.705 251.516 164.71 251.228Z" fill="#BDC6CD"/>
<path d="M173.962 224.248C174.361 224.246 174.761 224.245 175.172 224.243C176.014 224.242 176.856 224.245 177.698 224.251C178.981 224.259 180.263 224.251 181.546 224.242C182.367 224.243 183.187 224.245 184.007 224.248C184.579 224.243 184.579 224.243 185.162 224.239C187.869 224.273 189.767 224.742 191.894 226.523C193.472 228.553 193.558 230.246 193.308 232.766C191.86 231.046 191.86 231.046 191.86 230.232C189.067 228.719 186.764 228.258 183.626 228.278C183.26 228.277 182.894 228.276 182.517 228.275C181.747 228.274 180.977 228.276 180.207 228.28C179.036 228.286 177.866 228.28 176.695 228.273C175.943 228.274 175.192 228.276 174.44 228.278C174.094 228.276 173.747 228.273 173.391 228.271C171.157 228.294 169.315 228.669 167.244 229.508C167.244 229.747 167.244 229.986 167.244 230.232C167.005 230.232 166.766 230.232 166.52 230.232C166.415 230.516 166.311 230.799 166.203 231.092C165.796 232.042 165.796 232.042 165.072 232.766C164.82 230.229 164.906 228.549 166.521 226.523C168.919 224.416 170.858 224.224 173.962 224.248Z" fill="#EEF3FA"/>
<path d="M278.741 241.092C278.86 241.092 278.98 241.092 279.103 241.092C279.108 241.421 279.113 241.75 279.118 242.089C279.295 246.735 280.351 251.696 283.085 255.572C283.828 256.034 283.828 256.034 284.533 256.296C287.093 253.224 288.142 249.311 288.877 245.436C288.996 245.436 289.116 245.436 289.239 245.436C289.554 249.846 288.21 255.934 285.347 259.418C285.078 259.702 284.81 259.986 284.533 260.278C283.023 259.739 282.346 258.755 281.637 257.382C279.191 252.02 278.549 246.892 278.741 241.092Z" fill="#D0624E"/>
<path d="M72.761 248.332C73.7605 249.499 74.1418 250.57 74.5484 252.043C75.3739 255.37 75.3739 255.37 77.5123 257.819C77.7363 257.914 77.9603 258.008 78.191 258.106C80.2213 255.148 81.6792 251.907 82.173 248.332C82.412 248.332 82.6509 248.332 82.897 248.332C82.6312 253.072 81.467 257.33 78.915 261.364C78.1104 261.872 78.1104 261.872 77.467 262.088C74.3177 258.374 72.5946 253.214 72.761 248.332Z" fill="#D92635"/>
<path d="M77.4683 224.802C79.2503 225.568 79.8963 226.715 80.7263 228.422C81.6341 230.808 82.4133 233.093 82.1743 235.662C81.4786 234.966 81.1738 234.469 80.7461 233.6C80.6178 233.341 80.4895 233.082 80.3573 232.815C80.2252 232.545 80.0931 232.275 79.9571 231.997C79.7548 231.587 79.7548 231.587 79.5484 231.17C79.2157 230.496 78.8849 229.821 78.5543 229.146C78.0765 229.146 77.5986 229.146 77.1063 229.146C75.9623 231.172 74.8735 233.212 73.8483 235.3C73.7289 235.3 73.6094 235.3 73.4863 235.3C73.5726 231.314 74.647 227.704 77.4683 224.802Z" fill="#D92635"/>
<path d="M101.723 188.24C102.201 188.359 102.679 188.479 103.171 188.602C102.932 190.121 102.42 191.401 101.813 192.81C99.9774 197.237 98.8156 201.968 98.1029 206.702C97.9834 206.702 97.8639 206.702 97.7409 206.702C97.6961 204.699 97.8268 202.855 98.1934 200.887C98.2417 200.622 98.29 200.358 98.3398 200.085C99.1066 196.025 100.218 192.09 101.723 188.24Z" fill="#EB9080"/>
<path d="M99.5496 195.842C99.7885 195.842 100.027 195.842 100.274 195.842C100.082 197.869 99.6616 199.715 99.1027 201.671C98.6647 203.329 98.3796 205.011 98.1016 206.702C97.9821 206.702 97.8627 206.702 97.7396 206.702C97.6878 204.619 97.8571 202.707 98.2373 200.661C98.2831 200.396 98.3288 200.131 98.3759 199.857C98.6315 198.44 98.9505 197.163 99.5496 195.842Z" fill="#DD897C"/>
<path d="M278.74 241.092C278.859 241.092 278.979 241.092 279.102 241.092C279.115 241.442 279.129 241.792 279.143 242.153C279.271 244.687 279.509 246.946 280.345 249.359C280.66 250.565 280.475 251.475 280.188 252.676C280.068 252.676 279.949 252.676 279.826 252.676C278.865 248.747 278.606 245.125 278.74 241.092Z" fill="#BA5E50"/>
<path d="M114.393 170.14C114.512 170.498 114.632 170.857 114.755 171.226C113.441 172.54 112.127 173.854 110.773 175.208C110.534 175.089 110.295 174.969 110.049 174.846C111.447 173.222 112.854 171.633 114.393 170.14Z" fill="#E68F80"/>
<path d="M74.5712 217.2C74.5712 218.286 74.5712 218.286 73.9377 219.026C73.6689 219.282 73.4001 219.538 73.1232 219.802C72.8544 220.061 72.5856 220.32 72.3087 220.587C71.9951 220.881 71.9951 220.881 71.6752 221.182C71.4363 221.062 71.1973 220.943 70.9512 220.82C71.4174 220.283 71.8853 219.748 72.3539 219.214C72.6143 218.915 72.8747 218.617 73.143 218.31C73.8472 217.562 73.8472 217.562 74.5712 217.2Z" fill="#3C5263"/>
<path d="M213.218 155.66C213.218 156.018 213.218 156.377 213.218 156.746C214.413 156.865 215.607 156.985 216.838 157.108C216.838 157.227 216.838 157.347 216.838 157.47C215.046 157.47 213.254 157.47 211.408 157.47C212.006 156.873 212.603 156.275 213.218 155.66Z" fill="#384A5A"/>
<path d="M167.969 225.526C167.969 226.612 167.969 226.612 167.245 227.404C167.006 227.62 166.767 227.837 166.521 228.06C166.282 227.941 166.043 227.821 165.797 227.698C167.154 225.933 167.154 225.933 167.969 225.526Z" fill="#E4E9EF"/>
</svg>
