<svg width="68" height="68" viewBox="0 0 68 68" fill="none" xmlns="http://www.w3.org/2000/svg">
<path opacity="0.5" fill-rule="evenodd" clip-rule="evenodd" d="M18.417 4.95831C18.417 3.78472 17.4656 2.83331 16.292 2.83331C15.1184 2.83331 14.167 3.78472 14.167 4.95831V61.625C14.167 62.7985 15.1184 63.75 16.292 63.75C17.4656 63.75 18.417 62.7985 18.417 61.625V38.5333V10.2V4.95831Z" fill="#D92635"/>
<path d="M38.4152 10.9744L37.2442 10.506C32.8163 8.73481 27.9687 8.28975 23.2922 9.22506L18.417 10.2001V38.5333L23.2922 37.5584C27.9687 36.6231 32.8163 37.0682 37.2442 38.8393C42.0427 40.7586 47.3238 41.117 52.3377 39.8636L52.6213 39.7927C54.2819 39.3776 55.0693 37.4762 54.1887 36.0085L49.767 28.6387C48.7994 27.0262 48.3155 26.2199 48.2007 25.3429C48.1531 24.977 48.1531 24.6065 48.2007 24.2406C48.3155 23.3636 48.7994 22.5573 49.767 20.9447L53.3894 14.9072C54.3374 13.327 52.9018 11.3893 51.1139 11.8363C46.8957 12.8908 42.4524 12.5893 38.4152 10.9744Z" fill="#D92635"/>
</svg>
