<svg width="32" height="32" viewBox="0 0 32 32" fill="none" xmlns="http://www.w3.org/2000/svg">
<path d="M16.4482 23.2491L16.5643 23.1146C16.913 22.6448 16.8742 21.9781 16.4482 21.552L12.0972 17.2011L22.8008 17.2006L22.9637 17.1896C23.5493 17.1102 24.0008 16.6082 24.0008 16.0006L23.9898 15.8378C23.9104 15.252 23.4083 14.8006 22.8008 14.8006L12.094 14.8011L16.4491 10.448L16.5654 10.3134C16.9141 9.84368 16.8754 9.17701 16.4494 8.7509C15.981 8.28219 15.2211 8.28205 14.7525 8.75058L8.34997 15.1506L8.23374 15.2851C7.88506 15.7549 7.92373 16.4218 8.34981 16.8478L14.7512 23.2491L14.8858 23.3653C15.3555 23.7139 16.0221 23.6752 16.4482 23.2491ZM16 0C7.16344 0 0 7.16344 0 16C0 24.8365 7.16344 32 16 32C24.8365 32 32 24.8365 32 16C32 7.16344 24.8365 0 16 0ZM16 29.6C8.48893 29.6 2.4 23.511 2.4 16C2.4 8.48893 8.48893 2.4 16 2.4C23.511 2.4 29.6 8.48893 29.6 16C29.6 23.511 23.511 29.6 16 29.6Z" fill="black"/>
</svg>
