<svg width="20" height="19" viewBox="0 0 20 19" fill="none" xmlns="http://www.w3.org/2000/svg">
<path d="M14.7746 0.331543H5.20805C2.56513 0.331543 0.415039 2.48163 0.415039 5.12456V13.8765C0.415039 16.5195 2.56513 18.6695 5.20805 18.6695H14.7746C17.4175 18.6695 19.5676 16.5195 19.5676 13.8765V5.12456C19.5676 2.48163 17.4175 0.331543 14.7746 0.331543ZM2.10586 5.12456C2.10586 3.41424 3.49773 2.02235 5.20805 2.02235H14.7746C16.4849 2.02235 17.8768 3.41424 17.8768 5.12456V13.8765C17.8768 15.5868 16.4849 16.9787 14.7746 16.9787H5.20805C3.49773 16.9787 2.10586 15.5868 2.10586 13.8765V5.12456Z" fill="white"/>
<path d="M9.99103 13.9581C12.4487 13.9581 14.4493 11.9586 14.4493 9.49981C14.4493 7.04102 12.4498 5.0415 9.99103 5.0415C7.53224 5.0415 5.53271 7.04102 5.53271 9.49981C5.53271 11.9586 7.53224 13.9581 9.99103 13.9581ZM9.99103 6.7334C11.5172 6.7334 12.7585 7.97471 12.7585 9.5009C12.7585 11.0271 11.5172 12.2684 9.99103 12.2684C8.46485 12.2684 7.22354 11.0271 7.22354 9.5009C7.22354 7.97471 8.46485 6.7334 9.99103 6.7334Z" fill="white"/>
<path d="M14.8624 5.76134C15.5242 5.76134 16.0636 5.22303 16.0636 4.56013C16.0636 3.89723 15.5253 3.35889 14.8624 3.35889C14.1995 3.35889 13.6611 3.89723 13.6611 4.56013C13.6611 5.22303 14.1995 5.76134 14.8624 5.76134Z" fill="white"/>
</svg>
