<svg width="18" height="19" viewBox="0 0 18 19" fill="none" xmlns="http://www.w3.org/2000/svg">
<path d="M0.905708 4.3175C0.498438 3.93948 0.295898 3.47156 0.295898 2.91481C0.295898 2.35806 0.499521 1.86954 0.905708 1.49043C1.31298 1.1124 1.83723 0.922852 2.47955 0.922852C3.12187 0.922852 3.62555 1.1124 4.03174 1.49043C4.43901 1.86845 4.64155 2.34398 4.64155 2.91481C4.64155 3.48564 4.43792 3.93948 4.03174 4.3175C3.62447 4.69553 3.10779 4.88508 2.47955 4.88508C1.85132 4.88508 1.31298 4.69553 0.905708 4.3175ZM4.29928 6.48601V18.0759H0.637085V6.48601H4.29928Z" fill="white"/>
<path d="M16.4899 7.63085C17.2882 8.49739 17.6868 9.68673 17.6868 11.201V17.8711H14.2088V11.6711C14.2088 10.9074 14.0106 10.3139 13.6152 9.89143C13.2199 9.469 12.687 9.25669 12.0197 9.25669C11.3525 9.25669 10.8196 9.46792 10.4242 9.89143C10.0289 10.3139 9.83064 10.9074 9.83064 11.6711V17.8711H6.33203V6.45347H9.83064V7.96773C10.1848 7.46298 10.6625 7.06436 11.2626 6.77083C11.8627 6.47729 12.5375 6.33105 13.2881 6.33105C14.6247 6.33105 15.6927 6.76432 16.4899 7.63085Z" fill="white"/>
</svg>
