<svg width="65" height="66" viewBox="0 0 65 66" fill="none" xmlns="http://www.w3.org/2000/svg">
<path d="M32.5 5.91663C21.2817 5.91663 12.1875 15.0108 12.1875 26.2291C12.1875 31.4614 15.0702 36.5227 18.3294 40.6277C21.6341 44.7901 25.583 48.2882 28.23 50.4357C30.7361 52.4688 34.2639 52.4688 36.77 50.4357C39.4171 48.2882 43.3658 44.7901 46.6705 40.6277C49.9298 36.5227 52.8125 31.4614 52.8125 26.2291C52.8125 15.0108 43.7182 5.91663 32.5 5.91663ZM39.2708 26.2291C39.2708 29.9685 36.2394 33 32.5 33C28.7606 33 25.7292 29.9685 25.7292 26.2291C25.7292 22.4897 28.7606 19.4583 32.5 19.4583C36.2394 19.4583 39.2708 22.4897 39.2708 26.2291ZM47.8877 43.4181C46.9037 44.5884 45.8846 45.698 44.8725 46.7326C45.8356 47.0018 46.7328 47.3008 47.5548 47.6244C49.4371 48.366 50.8224 49.1982 51.7034 50.0189C52.5815 50.8365 52.8125 51.4935 52.8125 51.9586C52.8125 52.4236 52.5815 53.0806 51.7034 53.8983C50.8224 54.7189 49.4371 55.5512 47.5548 56.2927C43.803 57.7706 38.4811 58.7294 32.5 58.7294C26.519 58.7294 21.197 57.7706 17.4451 56.2927C15.563 55.5512 14.1775 54.7189 13.2965 53.8983C12.4185 53.0806 12.1875 52.4236 12.1875 51.9586C12.1875 51.4935 12.4185 50.8365 13.2965 50.0189C14.1775 49.1982 15.563 48.366 17.4451 47.6244C18.2671 47.3008 19.1644 47.0018 20.1275 46.7326C19.1155 45.698 18.0962 44.5884 17.1123 43.4181C16.716 43.5549 16.3304 43.6971 15.9561 43.8447C13.7947 44.6962 11.9081 45.7603 10.5277 47.0459C9.14442 48.3343 8.125 49.9929 8.125 51.9586C8.125 53.9243 9.14442 55.5829 10.5277 56.8712C11.9081 58.1569 13.7947 59.221 15.9561 60.0725C20.291 61.7801 26.1409 62.7919 32.5 62.7919C38.8592 62.7919 44.7092 61.7801 49.0438 60.0725C51.2054 59.221 53.092 58.1569 54.4722 56.8712C55.8556 55.5829 56.875 53.9243 56.875 51.9586C56.875 49.9929 55.8556 48.3343 54.4722 47.0459C53.092 45.7603 51.2054 44.6962 49.0438 43.8447C48.6696 43.6971 48.2839 43.5549 47.8877 43.4181Z" fill="white"/>
</svg>
