<svg width="72" height="72" viewBox="0 0 72 72" fill="none" xmlns="http://www.w3.org/2000/svg">
<path d="M15.8037 44.5227L27.5687 56.1954C27.5687 56.1954 64.2303 40.8366 62.2639 9.80085C62.2639 9.80085 33.1791 5.47844 15.8037 44.5227Z" stroke="#D92635" stroke-width="2.5"/>
<path d="M50.0479 10.5369C50.5085 13.3806 51.8349 16.0033 53.8382 18.0315C55.8942 20.1523 58.5713 21.5287 61.4625 21.9515" stroke="#D92635" stroke-width="2.5"/>
<path d="M44.3402 34.2442C47.9772 34.2442 50.9256 31.2958 50.9256 27.6589C50.9256 24.0219 47.9772 21.0735 44.3402 21.0735C40.7033 21.0735 37.7549 24.0219 37.7549 27.6589C37.7549 31.2958 40.7033 34.2442 44.3402 34.2442Z" stroke="#D92635" stroke-width="2.5"/>
<path d="M17.3525 42.2937L11.7321 43.0229C11.6828 43.0284 11.6329 43.0209 11.5873 43.0011C11.5417 42.9813 11.502 42.9499 11.4721 42.9099C11.4421 42.8698 11.423 42.8227 11.4165 42.7729C11.41 42.7232 11.4165 42.6726 11.4351 42.6261L15.6027 32.9746C15.782 32.5605 16.0564 32.1956 16.4032 31.9102C16.7499 31.6248 17.159 31.4273 17.5964 31.3338L24.5848 29.8539" stroke="#D92635" stroke-width="2.5"/>
<path d="M29.7658 55.1294L28.9765 61.1245C28.9706 61.1771 28.9786 61.2303 28.9997 61.2789C29.0209 61.3275 29.0544 61.3699 29.0971 61.4018C29.1398 61.4338 29.1901 61.4542 29.2431 61.4611C29.2962 61.468 29.3502 61.4611 29.3997 61.4412L39.6947 57.0071C40.1357 56.8117 40.5239 56.5163 40.828 56.1449C41.1321 55.7735 41.3434 55.3364 41.4448 54.8692L43.0234 47.4149" stroke="#D92635" stroke-width="2.5"/>
<path d="M24.5841 54.1865C22.0751 61.9539 9.65732 62.3417 9.65732 62.3417C9.65732 62.3417 9.54087 50.3919 17.7559 47.4149" stroke="#D92635" stroke-width="2.5"/>
</svg>
