<svg width="60" height="60" viewBox="0 0 60 60" fill="none" xmlns="http://www.w3.org/2000/svg">
<path d="M55.5015 7.40156L32.3629 0.343008C31.6161 0.115547 30.8211 0 30.0005 0C29.1796 0 28.3846 0.115547 27.6379 0.343008L4.49871 7.40156C4.09359 7.52625 3.83203 7.81277 3.83203 8.13399C3.83203 8.45508 4.09359 8.74172 4.49895 8.86641L15.21 12.1336V21.1838C15.2127 25.863 16.8035 30.3577 19.6894 33.8378C21.0762 35.5082 22.6723 36.8347 24.4335 37.7791C26.3016 38.7827 28.2384 39.2913 30.1902 39.2913C32.1409 39.2913 34.078 38.7827 35.9472 37.7791C38.5952 36.3561 40.8737 34.0706 42.5361 31.1709C44.2587 28.1612 45.1695 24.7075 45.1703 21.1838V12.018L50.4723 10.4004V17.9229C49.7457 18.0148 49.1824 18.6371 49.1824 19.3877C49.1824 20.0409 49.61 20.607 50.2221 20.7953L49.0976 28.215C49.07 28.3997 49.1237 28.5863 49.2455 28.729C49.3676 28.8701 49.5448 28.9519 49.7316 28.9519H53.9823C54.1689 28.9519 54.3461 28.87 54.4684 28.728C54.5898 28.5871 54.6437 28.3996 54.6163 28.2141L53.4918 20.7953C54.1038 20.607 54.5314 20.0411 54.5314 19.3877C54.5314 18.6371 53.9678 18.0148 53.2411 17.9229V9.55594L55.5019 8.86629C55.907 8.7416 56.1688 8.45414 56.1688 8.13387C56.1687 7.81371 55.9069 7.52613 55.5015 7.40156ZM30.1902 34.9068C28.9699 34.9068 27.73 34.5737 26.5049 33.9159C24.6071 32.9024 22.8829 31.1545 21.6489 28.9928C21.08 27.9993 20.6181 26.9183 20.2744 25.7766C27.4084 24.5138 31.8185 19.99 34.3063 16.2879C35.5065 18.7226 37.5478 21.7669 40.661 23.1607C40.2953 26.0885 39.1109 28.8809 37.3174 31.0371C36.3077 32.2563 35.1175 33.2517 33.875 33.9168C32.6495 34.5737 31.4095 34.9068 30.1902 34.9068Z" fill="#D92635"/>
<path d="M43.8042 36.8238L43.6866 36.7501L30.7335 48.1494L17.7802 36.75L17.6625 36.8237C13.3438 39.5232 8.75391 46.8611 8.75391 55.1432V55.2551L8.85305 55.3078C8.94152 55.3553 17.8638 60 30.7335 60C43.6029 60 52.5254 55.3553 52.6138 55.308L52.7129 55.2553V55.1434C52.713 46.8611 48.1229 39.5232 43.8042 36.8238Z" fill="#D92635"/>
</svg>
