<svg width="65" height="66" viewBox="0 0 65 66" fill="none" xmlns="http://www.w3.org/2000/svg">
<g clip-path="url(#clip0_913_801)">
<path d="M60.1266 8.51836L35.0597 0.871592C34.2508 0.625176 33.3896 0.5 32.5005 0.5C31.6112 0.5 30.7499 0.625176 29.941 0.871592L4.8736 8.51836C4.43473 8.65344 4.15137 8.96384 4.15137 9.31182C4.15137 9.65967 4.43473 9.97019 4.87386 10.1053L16.4775 13.6447V23.4491C16.4804 28.5183 18.2038 33.3875 21.3302 37.1576C22.8325 38.9672 24.5616 40.4043 26.4696 41.4274C28.4934 42.5146 30.5916 43.0656 32.706 43.0656C34.8193 43.0656 36.9178 42.5146 38.9427 41.4274C41.8115 39.8858 44.2798 37.4098 46.0808 34.2685C47.9469 31.008 48.9336 27.2664 48.9345 23.4491V13.5195L54.6783 11.7671V19.9165C53.8912 20.016 53.2809 20.6902 53.2809 21.5034C53.2809 22.211 53.7442 22.8242 54.4073 23.0282L53.189 31.0662C53.1592 31.2663 53.2173 31.4684 53.3492 31.6231C53.4815 31.7759 53.6735 31.8645 53.8758 31.8645H58.4808C58.6829 31.8645 58.8749 31.7758 59.0074 31.622C59.1389 31.4693 59.1973 31.2662 59.1676 31.0652L57.9494 23.0282C58.6125 22.8242 59.0757 22.2111 59.0757 21.5034C59.0757 20.6902 58.4651 20.016 57.6778 19.9165V10.8523L60.127 10.1051C60.5659 9.97007 60.8495 9.65865 60.8495 9.31169C60.8494 8.96485 60.5658 8.65331 60.1266 8.51836ZM32.706 38.3157C31.3841 38.3157 30.0408 37.9548 28.7136 37.2423C26.6577 36.1442 24.7897 34.2507 23.4529 31.9088C22.8367 30.8325 22.3363 29.6615 21.9639 28.4246C29.6924 27.0566 34.4701 22.1558 37.1651 18.1452C38.4654 20.7828 40.6768 24.0808 44.0494 25.5908C43.6532 28.7626 42.3701 31.7876 40.4272 34.1235C39.3334 35.4444 38.0439 36.5227 36.698 37.2431C35.3703 37.9548 34.027 38.3157 32.706 38.3157Z" fill="white"/>
<path d="M47.4536 40.3925L47.3261 40.3126L33.2936 52.6619L19.2609 40.3125L19.1334 40.3924C14.4548 43.3168 9.48242 51.2661 9.48242 60.2384V60.3597L9.58982 60.4168C9.68567 60.4682 19.3515 65.5 33.2936 65.5C47.2355 65.5 56.9016 60.4682 56.9973 60.4171L57.1047 60.3599V60.2387C57.1048 51.2661 52.1322 43.3168 47.4536 40.3925Z" fill="white"/>
</g>
<defs>
<clipPath id="clip0_913_801">
<rect width="65" height="65" fill="white" transform="translate(0 0.5)"/>
</clipPath>
</defs>
</svg>
