<svg width="18" height="17" viewBox="0 0 18 17" fill="none" xmlns="http://www.w3.org/2000/svg">
<g clip-path="url(#clip0_119_1018)">
<path d="M8.99999 9.06667C8.68703 9.06667 8.43332 9.32037 8.43332 9.63333C8.43332 9.94629 8.68703 10.2 8.99999 10.2C9.31294 10.2 9.56665 9.94629 9.56665 9.63333C9.56665 9.32037 9.31294 9.06667 8.99999 9.06667Z" fill="white"/>
<path fill-rule="evenodd" clip-rule="evenodd" d="M14.1 7.01644L9.56667 4.74978V3.4H12.9667V0H8.43333V4.74978L3.9 7.01644V9.06667H1.63333V15.8667H0.5V17H7.3V12.4667H10.7V17H17.5V15.8667H16.3667V9.06667H14.1V7.01644ZM15.2333 15.8667V10.2H14.1V15.8667H15.2333ZM3.9 15.8667H2.76667V10.2H3.9V15.8667ZM7.3 9.63333C7.3 8.69445 8.06111 7.93333 9 7.93333C9.93889 7.93333 10.7 8.69445 10.7 9.63333C10.7 10.5722 9.93889 11.3333 9 11.3333C8.06111 11.3333 7.3 10.5722 7.3 9.63333Z" fill="white"/>
<path d="M9.56665 17V13.6H8.43332V17H9.56665Z" fill="white"/>
</g>
<defs>
<clipPath id="clip0_119_1018">
<rect width="17" height="17" fill="white" transform="translate(0.5)"/>
</clipPath>
</defs>
</svg>
