<svg width="24" height="25" viewBox="0 0 24 25" fill="none" xmlns="http://www.w3.org/2000/svg">
<path d="M5 10.7419C5 7.98052 7.23858 5.74194 10 5.74194C12.7614 5.74194 15 7.98052 15 10.7419C15 13.5033 12.7614 15.7419 10 15.7419C7.23858 15.7419 5 13.5033 5 10.7419ZM10 3.74194C6.13401 3.74194 3 6.87595 3 10.7419C3 14.6079 6.13401 17.7419 10 17.7419C11.5723 17.7419 13.0236 17.2235 14.1922 16.3483L19.2929 21.449C19.6834 21.8395 20.3166 21.8395 20.7071 21.449C21.0976 21.0585 21.0976 20.4253 20.7071 20.0348L15.6064 14.9341C16.4816 13.7655 17 12.3142 17 10.7419C17 6.87595 13.866 3.74194 10 3.74194Z" fill="#212121"/>
</svg>
