<svg width="65" height="66" viewBox="0 0 65 66" fill="none" xmlns="http://www.w3.org/2000/svg">
<g clip-path="url(#clip0_913_730)">
<path d="M32.4997 35.1666C31.3031 35.1666 30.333 36.1367 30.333 37.3333C30.333 38.5299 31.3031 39.5 32.4997 39.5C33.6963 39.5 34.6663 38.5299 34.6663 37.3333C34.6663 36.1367 33.6963 35.1666 32.4997 35.1666Z" fill="white"/>
<path fill-rule="evenodd" clip-rule="evenodd" d="M52 27.3276L34.6667 18.6609V13.5H47.6667V0.5H30.3333V18.6609L13 27.3276V35.1667H4.33333V61.1667H0V65.5H26V48.1667H39V65.5H65V61.1667H60.6667V35.1667H52V27.3276ZM56.3333 61.1667V39.5H52V61.1667H56.3333ZM13 61.1667H8.66667V39.5H13V61.1667ZM26 37.3333C26 33.7435 28.9101 30.8333 32.5 30.8333C36.0899 30.8333 39 33.7435 39 37.3333C39 40.9232 36.0899 43.8333 32.5 43.8333C28.9101 43.8333 26 40.9232 26 37.3333Z" fill="white"/>
<path d="M34.6663 65.5V52.5H30.333V65.5H34.6663Z" fill="white"/>
</g>
<defs>
<clipPath id="clip0_913_730">
<rect width="65" height="65" fill="white" transform="translate(0 0.5)"/>
</clipPath>
</defs>
</svg>
