<svg width="18" height="17" viewBox="0 0 18 17" fill="none" xmlns="http://www.w3.org/2000/svg">
<g clip-path="url(#clip0_119_1010)">
<path d="M16.2253 2.09712L9.66936 0.0971932C9.45779 0.0327459 9.23254 7.62939e-06 9.00002 7.62939e-06C8.76743 7.62939e-06 8.54218 0.0327459 8.33061 0.0971932L1.77452 2.09712C1.65974 2.13244 1.58563 2.21363 1.58563 2.30464C1.58563 2.39561 1.65974 2.47683 1.77459 2.51216L4.80939 3.43786V6.00207C4.81015 7.32787 5.26089 8.60134 6.07855 9.58738C6.47147 10.0607 6.9237 10.4365 7.42271 10.7041C7.952 10.9884 8.50078 11.1325 9.05378 11.1325C9.60648 11.1325 10.1553 10.9884 10.6849 10.7041C11.4352 10.3009 12.0808 9.65335 12.5518 8.83177C13.0398 7.97902 13.2979 7.00045 13.2981 6.00207V3.40512L14.8004 2.94678V5.07816C14.5945 5.10419 14.4349 5.28053 14.4349 5.4932C14.4349 5.67827 14.5561 5.83864 14.7295 5.892L14.4109 7.99426C14.4031 8.04659 14.4183 8.09944 14.4528 8.13989C14.4874 8.17986 14.5376 8.20304 14.5905 8.20304H15.7949C15.8477 8.20304 15.8979 8.17983 15.9326 8.13962C15.967 8.09968 15.9823 8.04655 15.9745 7.99399L15.6559 5.892C15.8293 5.83864 15.9505 5.67831 15.9505 5.4932C15.9505 5.28053 15.7908 5.10419 15.5849 5.07816V2.70752L16.2254 2.51212C16.3402 2.47679 16.4144 2.39535 16.4144 2.3046C16.4143 2.21389 16.3402 2.13241 16.2253 2.09712ZM9.05378 9.89025C8.70803 9.89025 8.35671 9.79589 8.00961 9.60952C7.47191 9.32235 6.98336 8.82712 6.63373 8.21463C6.47257 7.93313 6.34168 7.62686 6.2443 7.30337C8.2656 6.94557 9.51513 5.66383 10.22 4.61491C10.5601 5.30474 11.1384 6.16729 12.0205 6.56221C11.9169 7.39175 11.5813 8.18292 11.0732 8.79385C10.7871 9.1393 10.4498 9.42133 10.0978 9.60975C9.75058 9.79589 9.39926 9.89025 9.05378 9.89025Z" fill="white"/>
<path d="M12.9108 10.4334L12.8775 10.4125L9.20746 13.6423L5.53736 10.4125L5.50402 10.4334C4.28039 11.1983 2.97992 13.2773 2.97992 15.6239V15.6556L3.00801 15.6706C3.03308 15.684 5.56106 17 9.20746 17C12.8538 17 15.3818 15.684 15.4069 15.6706L15.435 15.6557V15.624C15.435 13.2773 14.1345 11.1983 12.9108 10.4334Z" fill="white"/>
</g>
<defs>
<clipPath id="clip0_119_1010">
<rect width="17" height="17" fill="white" transform="translate(0.5 7.62939e-06)"/>
</clipPath>
</defs>
</svg>
