<svg width="52" height="46" viewBox="0 0 52 46" fill="none" xmlns="http://www.w3.org/2000/svg">
<path d="M19.1554 0.170712C19.1252 0.170712 19.0798 0.170712 19.0496 0.170712C18.9891 0.216724 18.9285 0.262737 18.8529 0.293411C18.0815 0.661518 17.2949 1.01429 16.5386 1.39773C13.4981 2.91616 10.6241 4.68 8.05258 6.96532C5.54158 9.1893 3.62051 11.8274 2.44064 15.0023C1.41204 17.7631 0.897735 20.6466 0.685964 23.5914C0.655711 24.0976 0.610331 24.6037 0.580078 25.1099C0.595205 31.7511 0.595205 38.4077 0.595205 45.0796C8.47612 45.0796 16.357 45.0796 24.238 45.0796C24.238 44.9569 24.2228 44.8342 24.2228 44.7115C24.2228 37.5488 24.2228 30.3707 24.2228 23.208C24.2228 23.1006 24.2228 22.9779 24.2228 22.8399C20.4412 22.8399 16.6898 22.8399 12.9384 22.8399C12.9384 22.7785 12.9233 22.7479 12.9384 22.7325C12.9536 22.5945 12.9687 22.4564 12.9838 22.3184C13.3317 19.0975 14.6931 16.4287 17.1436 14.3274C18.7773 12.9317 20.5925 11.8427 22.4682 10.8611C23.043 10.5544 23.6178 10.2783 24.2228 9.97152C24.1775 9.87949 24.1472 9.80281 24.1018 9.72612C22.4984 6.64323 20.895 3.56034 19.2916 0.492802C19.2311 0.385437 19.2008 0.278076 19.1554 0.170712Z" fill="url(#paint0_linear_1038_918)"/>
<path d="M46.3378 0.170712C46.3076 0.170712 46.2622 0.170712 46.2319 0.170712C46.1563 0.216724 46.0958 0.262737 46.0201 0.30875C45.4605 0.569492 44.9008 0.814896 44.3562 1.09098C41.4368 2.51738 38.6535 4.15852 36.1123 6.21378C32.5727 9.08193 30.1222 12.6863 28.9272 17.1496C28.1255 20.1251 27.7927 23.1466 27.7776 26.2142C27.7624 32.3953 27.7776 38.5611 27.7624 44.7422C27.7624 44.8495 27.7624 44.9722 27.7473 45.0796C35.6585 45.0796 43.5394 45.0796 51.4203 45.0796C51.4203 37.6715 51.4203 30.2633 51.4203 22.8399C47.6387 22.8399 43.8873 22.8399 40.1208 22.8399C40.1511 22.5331 40.1813 22.257 40.2116 21.981C40.6049 18.9134 41.9511 16.3674 44.2806 14.3581C46.0958 12.7937 48.153 11.6127 50.2707 10.539C50.6489 10.355 51.027 10.1709 51.4203 9.97152C51.3749 9.86416 51.3296 9.78747 51.2842 9.69544C49.6808 6.61256 48.0774 3.52967 46.4739 0.462128C46.4134 0.370102 46.3832 0.262737 46.3378 0.170712Z" fill="url(#paint1_linear_1038_918)"/>
<defs>
<linearGradient id="paint0_linear_1038_918" x1="51.4203" y1="32.3695" x2="0.580078" y2="32.3695" gradientUnits="userSpaceOnUse">
<stop stop-color="#D92635"/>
<stop offset="1" stop-color="#D92635" stop-opacity="0.5"/>
</linearGradient>
<linearGradient id="paint1_linear_1038_918" x1="51.4203" y1="32.3695" x2="0.580078" y2="32.3695" gradientUnits="userSpaceOnUse">
<stop stop-color="#D92635"/>
<stop offset="1" stop-color="#D92635" stop-opacity="0.5"/>
</linearGradient>
</defs>
</svg>
