<svg width="20" height="15" viewBox="0 0 20 15" fill="none" xmlns="http://www.w3.org/2000/svg">
<path d="M19.7236 4.29684C19.6019 3.12272 19.3402 1.82477 18.3768 1.14267C17.6306 0.61372 16.6498 0.594165 15.7342 0.595251C13.7987 0.596338 11.8621 0.598514 9.92657 0.5996C8.06492 0.601773 6.20326 0.602864 4.34161 0.605036C3.56393 0.606122 2.80797 0.545304 2.08568 0.882008C1.46549 1.17092 0.979987 1.7205 0.687814 2.332C0.282681 3.18245 0.197966 4.14587 0.14909 5.08647C0.0589397 6.79932 0.068715 8.51652 0.176243 10.2283C0.255532 11.4774 0.456466 12.8578 1.42205 13.654C2.27793 14.3589 3.48572 14.3936 4.59576 14.3947C8.11922 14.398 11.6438 14.4012 15.1683 14.4034C15.6201 14.4045 16.0915 14.3958 16.5521 14.3459C17.4579 14.2481 18.3214 13.9885 18.9036 13.3173C19.4912 12.6406 19.6421 11.6989 19.7312 10.8072C19.9484 8.64358 19.9463 6.45935 19.7236 4.29684ZM7.88896 10.5324V4.46629L13.1416 7.49879L7.88896 10.5324Z" fill="white"/>
</svg>
